<?xml version="1.0" encoding="UTF-8"?>
<svg width="720px" height="1080px" viewBox="0 0 720 1080" version="1.1" xmlns="http://www.w3.org/2000/svg" xmlns:xlink="http://www.w3.org/1999/xlink">
    <title>Rectangle + Rectangle + Rectangle + Rectangle Mask</title>
    <defs>
        <rect id="path-1" x="0" y="0" width="720" height="1080"></rect>
    </defs>
    <g id="2---On-boarding" stroke="none" stroke-width="1" fill="none" fill-rule="evenodd">
        <g id="Login" transform="translate(-720, 0)">
            <g id="Rectangle-+-Rectangle-+-Rectangle-+-Rectangle-Mask" transform="translate(720, 0)">
                <mask id="mask-2" fill="white">
                    <use xlink:href="#path-1"></use>
                </mask>
                <use id="Mask" fill="#37BB9A" xlink:href="#path-1"></use>
                <path d="M-41.724043,-30.3242559 L132.988953,-30.7289346 C141.273202,-30.748123 148.004468,-24.0479675 148.023657,-15.7637185 C148.02371,-15.7405466 148.02371,-15.7173747 148.023657,-15.6942028 L147.411481,248.385956 C147.39234,256.643071 140.70338,263.332018 132.446265,263.351144 L-42.2667311,263.755823 C-50.5509801,263.775011 -57.2822461,257.074856 -57.3014344,248.790607 C-57.3014881,248.767435 -57.3014881,248.744263 -57.3014344,248.721091 L-56.6892591,-15.3590682 C-56.6701179,-23.6161827 -49.9811576,-30.3051304 -41.724043,-30.3242559 Z" id="Rectangle" fill="#23AA88" mask="url(#mask-2)" transform="translate(45.3611, 116.5134) rotate(-140) translate(-45.3611, -116.5134)"></path>
                <path d="M9.24117478,894.787631 L183.644568,894.424903 C191.928822,894.407673 198.658504,901.10942 198.675733,909.393673 C198.675776,909.414449 198.675777,909.435224 198.675733,909.455999 L198.126782,1173.9814 C198.109641,1182.24132 191.417936,1188.93306 183.158012,1188.95024 L8.75461788,1189.31296 C0.470364546,1189.33019 -6.25931717,1182.62845 -6.27654693,1174.34419 C-6.27659014,1174.32342 -6.27659019,1174.30264 -6.27654708,1174.28187 L-5.72759567,909.75647 C-5.71045442,901.496546 0.981250634,894.80481 9.24117478,894.787631 Z" id="Rectangle" fill="#23AA88" mask="url(#mask-2)" transform="translate(96.1996, 1041.8689) rotate(239) translate(-96.1996, -1041.8689)"></path>
                <path d="M518.387068,909.935003 L693.100064,909.530325 C701.384313,909.511136 708.115579,916.211292 708.134768,924.495541 C708.134821,924.518713 708.134821,924.541885 708.134768,924.565056 L707.522592,1188.64522 C707.503451,1196.90233 700.814491,1203.59128 692.557376,1203.6104 L517.84438,1204.01508 C509.560131,1204.03427 502.828865,1197.33411 502.809677,1189.04987 C502.809623,1189.02669 502.809623,1189.00352 502.809677,1188.98035 L503.421852,924.900191 C503.440993,916.643077 510.129954,909.954129 518.387068,909.935003 Z" id="Rectangle" fill="#23AA88" mask="url(#mask-2)" transform="translate(605.4722, 1056.7727) rotate(40) translate(-605.4722, -1056.7727)"></path>
                <path d="M533.576292,-109.110152 L708.446476,-108.754236 C716.706867,-108.737424 723.399063,-102.04526 723.415915,-93.7848689 L723.954206,170.069432 C723.971107,178.353686 717.269093,185.083102 708.984839,185.100003 C708.964462,185.100044 708.944085,185.100044 708.923708,185.100003 L534.053524,184.744087 C525.793133,184.727275 519.100937,178.035111 519.084085,169.77472 L518.545794,-94.0795813 C518.528893,-102.363835 525.230907,-109.093251 533.515161,-109.110152 C533.535538,-109.110193 533.555915,-109.110193 533.576292,-109.110152 Z" id="Rectangle" fill="#23AA88" mask="url(#mask-2)" transform="translate(621.25, 37.9949) rotate(-30) translate(-621.25, -37.9949)"></path>
            </g>
        </g>
    </g>
</svg>