<?xml version="1.0" encoding="UTF-8"?>
<svg width="436px" height="514px" viewBox="0 0 436 514" version="1.1" xmlns="http://www.w3.org/2000/svg" xmlns:xlink="http://www.w3.org/1999/xlink">
    <title>Group 7</title>
    <g id="1---Landing" stroke="none" stroke-width="1" fill="none" fill-rule="evenodd">
        <g id="Landing-Page-Dark---Desktop" transform="translate(-180, -2889)">
            <g id="Group-7" transform="translate(180, 2889)">
                <path d="M211.164997,0.5 C248.837577,0.5 302.31734,44.8063389 371.651227,133.153546 C406.000652,203.068271 423.195313,256.252283 423.195313,292.71138 C423.195313,329.156984 405.995743,371.932975 371.646171,421.050882 C357.288977,451.928397 340.239169,475.035924 320.4393,490.437504 C300.675708,505.810864 278.174196,513.497075 252.935088,513.497075 C202.311156,513.497075 134.886917,482.635883 50.6608888,420.981931 C17.2340501,348.32929 0.5,295.745295 0.5,263.224825 C0.5,230.70539 17.2490145,187.339043 50.7054777,133.103562 C120.032239,44.7901149 173.499315,0.5 211.164997,0.5 Z" id="Rectangle" stroke="#979797" fill="#37BB9A"></path>
                <g id="undraw_personal_goals_re_iow7" transform="translate(39, 111)" fill-rule="nonzero">
                    <path d="M379.463887,206.311104 C379.007089,207.190705 378.530438,208.05521 378.038592,208.914716 C359.177454,241.821805 315.302103,262.258673 241.308089,251.442119 C199.294737,245.008481 181.402337,268.60689 164.077017,292.778271 C163.780736,293.195462 163.484696,293.612653 163.183515,294.029844 C145.040161,319.377376 127.077436,344.795314 82.1632554,336.34611 C34.5487122,328.806688 5.16303837,290.089197 0.615871291,248.75304 C0.56048704,248.25041 0.510491278,247.742751 0.465154435,247.240121 C-2.08939747,220.439969 5.80535436,192.689845 25.9462184,171.740296 C38.1121927,159.089145 55.3973239,152.369009 73.2394802,152.580101 C78.6115659,152.680319 83.9813608,152.281538 89.2799277,151.388878 C90.4493736,151.182814 91.583777,150.956626 92.687797,150.70028 C115.418497,145.498084 125.893071,130.032201 132.317162,111.15851 C132.467873,110.711161 132.618343,110.263819 132.763912,109.81147 C147.514586,64.8011028 140.693707,1.62573286 220.886138,10.9193349 C292.64663,16.217026 345.310268,56.0654237 371.14248,102.040832 C371.398571,102.503236 371.654421,102.965681 371.90537,103.428085 C379.005422,116.184755 384.072015,129.973897 386.921907,144.296805 C387.082672,145.100994 387.228241,145.905219 387.363758,146.709414 C391.017447,168.061063 388.623412,188.81461 379.463887,206.311104 Z" id="Path" fill="#F2F2F2"></path>
                    <path d="M372,103.392288 C366.842599,109.542281 361.031581,115.109065 354.670183,119.993744 C329.889392,139.061997 298.502338,149.403257 267.537772,151.57236 C251.624596,152.694831 235.633159,151.604983 220.017413,148.333755 C204.130298,144.994296 188.97722,139.112415 174.301843,132.241774 C160.02857,125.557805 146.177777,118.021313 132,111.150713 C132.15097,110.701743 132.301699,110.252778 132.447519,109.79879 C147.907227,117.26465 163.050252,125.492236 178.690883,132.604978 C193.426648,139.309145 208.680148,144.777369 224.632543,147.703177 C240.549143,150.602411 256.793055,151.240913 272.886921,149.599917 C303.766321,146.482421 335.178418,135.051583 358.918341,114.601158 C363.375713,110.761881 367.496649,106.546042 371.235833,102 C371.492335,102.464086 371.748625,102.928208 372,103.392288 Z" id="Path" fill="#FFFFFF"></path>
                    <path d="M264.332002,0 C264.295851,0 264.259701,0 264.223554,0.00347420647 C225.967345,2.39360442 196,34.2377034 196,72.4999866 C196,110.762512 225.967345,142.60683 264.223571,144.996257 C264.685605,145.027261 265.139656,144.864604 265.476289,144.54749 C265.812012,144.235707 266.001864,143.79824 266,143.340755 L266,1.65919509 C265.997887,0.742098187 265.251679,0 264.332037,0 L264.332002,0 Z" id="Path" fill="#CCCCCC"></path>
                    <path d="M322.640203,121 C322.07261,121 321.528321,120.775712 321.126409,120.377592 L271.626128,71.206445 C271.223973,70.8091887 270.998518,70.2686282 271,69.7052496 L271,2.12563951 C270.997708,1.5393922 271.241995,0.978828963 271.673895,0.579297193 C272.106894,0.174883482 272.689205,-0.0332715138 273.282333,0.00433926567 C311.815477,2.40226392 342,34.3521542 342,72.7410426 C342.001161,90.1787413 335.707844,107.038839 324.262528,120.260576 C323.873362,120.708349 323.314584,120.975618 322.719515,120.998616 C322.693074,121 322.666636,121 322.640203,121 Z" id="Path" fill="#CCCCCC"></path>
                    <path d="M273.124722,146 C272.583692,146 272.063047,145.793565 271.66815,145.423801 C271.239927,145.02531 270.997707,144.466048 271,143.88115 L271,83.1155361 C271,82.2599224 271.515615,81.4885893 272.306216,81.161135 C273.096818,80.8336806 274.006854,81.014575 274.612062,81.6194848 L317.37985,124.380359 C317.79039,124.79134 318.014306,125.352732 317.999291,125.933394 C317.984276,126.514056 317.731645,127.063129 317.300413,127.45235 C305.124217,138.412792 289.606209,144.94617 273.256051,145.995868 C273.212425,145.998626 273.168347,146 273.124722,146 Z" id="Path" fill="#00BFA6"></path>
                    <path d="M387,147.417455 C380.115872,159.670858 370.396904,170.478832 359.268225,179.045602 C334.536915,198.082957 303.212522,208.407437 272.309772,210.573054 C256.428371,211.693704 240.468866,210.605622 224.8843,207.339697 C209.028908,204.00565 193.906087,198.133299 179.260013,191.273792 C164.348117,184.288403 149.892649,176.366234 135.045677,169.249925 C120.214143,162.138597 104.970764,156.074868 89,152.106238 C90.1691169,151.899762 91.3032013,151.673121 92.4069107,151.416263 C93.4505862,151.688213 94.4909173,151.970245 95.5279041,152.26236 C126.756744,161.025588 154.318002,178.295157 183.640289,191.63639 C198.346631,198.329693 213.569674,203.789057 229.490215,206.710124 C245.375033,209.604663 261.586511,210.24213 277.648241,208.603791 C308.465982,205.49134 339.815357,194.07903 363.507877,173.661743 C372.885722,165.615619 380.70055,155.898363 386.558274,145 C386.718993,145.80582 386.864522,146.611652 387,147.417455 Z" id="Path" fill="#FFFFFF"></path>
                    <path d="M76.956648,253.824311 C107.805579,262.488273 135.082824,279.442107 164,292.741323 C163.703016,293.160882 163.406275,293.580441 163.104379,294 C162.369898,293.661303 161.640577,293.32264 160.911008,292.978914 C145.95953,285.967888 131.465693,278.016644 116.579313,270.874223 C101.391257,263.585157 85.7755789,257.393011 69.3902654,253.414871 C46.7410998,247.933387 23.3444076,246.261183 0.151074403,248.46622 C0.0955587636,247.960737 0.0454443966,247.450197 0,246.944714 C25.8550885,244.492462 51.9385581,246.824213 76.956648,253.824311 Z" id="Path" fill="#FFFFFF"></path>
                    <circle id="Oval" fill="#A0616A" cx="70" cy="211" r="14"></circle>
                    <polygon id="Path" fill="#A0616A" points="122.6764 311 123 318.244245 96.4777762 323 96 312.309016"></polygon>
                    <path d="M130.24088,309 L131,324.963061 L130.709164,324.976484 C128.462571,325.122081 126.224363,324.589031 124.293684,323.448577 C122.54791,322.353089 121.542593,320.835726 121.463591,319.176288 L121.463591,319.175898 L121,309.426238 L130.24088,309 Z" id="Path" fill="#2F2E41"></path>
                    <polygon id="Path" fill="#A0616A" points="122.001105 322 128.776832 321.999429 132 295 122 295.000571"></polygon>
                    <path d="M120,320.000566 L134.047291,320 L134.047873,320 C136.42212,320 138.699145,320.918193 140.378005,322.552757 C142.056864,324.18732 143,326.404288 143,328.715929 L143,328.999167 L120.000442,329 L120,320.000566 Z" id="Path" fill="#2F2E41"></path>
                    <path d="M55.7334877,316.083539 C57.3416781,315.140007 58.4356973,313.55513 58.7211664,311.755368 C59.0066355,309.955606 58.4542304,308.125836 57.2125922,306.758412 L63,251 L49.2163929,251.933052 L47.8617506,306.448354 C45.5777323,308.669308 45.3700429,312.193546 47.3783129,314.651708 C49.3865829,317.10987 52.9760445,317.724989 55.7334877,316.083516 L55.7334877,316.083539 Z" id="Path" fill="#A0616A"></path>
                    <path d="M62.963237,259.979938 L49.381344,258.311911 C48.5993789,258.215864 47.8976245,257.781561 47.4589447,257.122173 C47.020265,256.462784 46.888111,255.643623 47.0969195,254.878146 L50.7136026,241.623204 C51.2385407,237.477373 54.9934965,234.541449 59.1087674,235.059193 C63.2240383,235.576937 66.1475197,239.353079 65.6449584,243.501725 L65.999101,257.199573 C66.0193762,257.993184 65.6958736,258.756386 65.1128921,259.290302 C64.5299106,259.824218 63.7451943,260.075963 62.9632258,259.979938 L62.963237,259.979938 Z" id="Path" fill="#00BFA6"></path>
                    <path d="M60.8713064,323 C57.4675674,322.767259 54.4485806,320.731969 52.9574987,317.664802 C51.4664168,314.597635 51.7311812,310.967468 53.6515376,308.148879 L62.6652245,298.795678 L95.5219135,269.381297 L113.087659,254.811875 C115.171155,253.083757 117.997398,252.54816 120.569151,253.39407 C123.140904,254.23998 125.096626,256.348477 125.746245,258.975581 L134.923318,296.082701 C135.24241,297.361608 134.539678,298.674044 133.29806,299.118065 L123.293301,302.7179 C122.615974,302.96172 121.867403,302.910538 121.229603,302.576799 C120.591802,302.24306 120.1232,301.657338 119.937736,300.96205 L116.131989,286.697172 L94.9563784,306.931273 L101.563144,309.36202 C102.819362,309.829759 103.508583,311.180539 103.149757,312.471565 L101.014752,320.032095 C100.712359,321.114658 99.7388934,321.873465 98.614785,321.902844 L60.8713064,323 Z" id="Path" fill="#2F2E41"></path>
                    <path d="M59.8871286,302 L59.0094591,270.05961 L53.4732512,256.050352 C51.1851798,250.265014 51.5772984,243.768287 54.5447266,238.297859 C57.5121548,232.827432 62.7521404,228.941425 68.8631374,227.679234 C69.3188793,227.584908 69.7733036,227.493015 70.2264103,227.403553 L70.2264103,227.403553 C76.0826173,226.245228 82.1573947,227.606544 86.9519299,231.151626 C91.7464651,234.696708 94.8142638,240.095419 95.3984167,246.015749 L98,270.061295 L97.9894345,270.107337 C93.8411332,288.492699 81.8368357,298.610963 60.2108623,301.950031 L59.8871286,302 Z" id="Path" fill="#00BFA6"></path>
                    <path d="M73.0951919,279.934842 C73.4107841,279.886104 73.7297194,279.862383 74.0490324,279.8639 L90.0675463,256.095203 L87.0338954,249.825435 L95.8762589,244 L102.322956,254.576293 C103.392746,256.331366 103.178251,258.583528 101.796493,260.104055 L79.8729273,284.229383 C80.5779409,286.652762 79.7132538,289.260539 77.7012342,290.778908 C75.6892145,292.297278 72.949709,292.409403 70.820866,291.060516 C68.6920231,289.711628 67.6180668,287.183199 68.1235858,284.710273 C68.6291047,282.237348 70.6086125,280.335949 73.0951919,279.934842 L73.0951919,279.934842 Z" id="Path" fill="#A0616A"></path>
                    <path d="M88.538664,255.905771 C87.7990075,255.706895 87.1860041,255.207329 86.8597147,254.537514 L81.2257807,242.977643 C78.98925,239.733454 79.8984726,235.35721 83.2587456,233.192633 C86.6190187,231.028057 91.1634137,231.891261 93.4197293,235.122705 L102.321095,244.640848 C102.835107,245.190546 103.075345,245.928603 102.979205,246.662695 C102.883066,247.396787 102.460072,248.0542 101.82045,248.463623 L90.7108934,255.574725 C90.0713609,255.984521 89.2782288,256.105394 88.538664,255.905771 L88.538664,255.905771 Z" id="Path" fill="#00BFA6"></path>
                    <path d="M257.450969,222 L210.549031,222 C209.14124,222 208,220.880712 208,219.5 C208,218.119288 209.14124,217 210.549031,217 L257.450969,217 C258.85876,217 260,218.119288 260,219.5 C260,220.880712 258.85876,222 257.450969,222 L257.450969,222 Z" id="Path" fill="#CCCCCC"></path>
                    <path d="M196.5,225 C193.462434,225 191,222.537566 191,219.5 C191,216.462434 193.462434,214 196.5,214 C199.537566,214 202,216.462434 202,219.5 C201.996551,222.536136 199.536136,224.996551 196.5,225 Z" id="Path" fill="#3F3D56"></path>
                    <path d="M257.450969,237 L210.549031,237 C209.14124,237 208,235.880712 208,234.5 C208,233.119288 209.14124,232 210.549031,232 L257.450969,232 C258.85876,232 260,233.119288 260,234.5 C260,235.880712 258.85876,237 257.450969,237 L257.450969,237 Z" id="Path" fill="#CCCCCC"></path>
                    <path d="M196.500086,240 C194.275575,240 192.270103,238.659991 191.418818,236.604811 C190.567534,234.549632 191.038083,232.184017 192.61105,230.61105 C194.184017,229.038083 196.549632,228.567534 198.604811,229.418818 C200.659991,230.270103 202,232.275575 202,234.500086 C201.996551,237.536175 199.536175,239.996551 196.500086,240 Z" id="Path" fill="#3F3D56"></path>
                    <path d="M257.450969,252 L210.549031,252 C209.14124,252 208,250.880712 208,249.5 C208,248.119288 209.14124,247 210.549031,247 L257.450969,247 C258.85876,247 260,248.119288 260,249.5 C260,250.880712 258.85876,252 257.450969,252 L257.450969,252 Z" id="Path" fill="#CCCCCC"></path>
                    <path d="M196.5,255 C193.462434,255 191,252.537566 191,249.5 C191,246.462434 193.462434,244 196.5,244 C199.537566,244 202,246.462434 202,249.5 C201.996551,252.536136 199.536136,254.996551 196.5,255 Z" id="Path" fill="#3F3D56"></path>
                    <path d="M270.501645,235 L289.500045,235 C289.776158,235 290,234.773221 290,234.493496 L290,115.506498 C290,115.226767 289.776161,115 289.500042,115 C289.223923,115 289.000085,115.226767 289.000085,115.506498 L289.000085,233.987001 L270.501645,233.987001 C270.322626,233.98639 270.156947,234.082794 270.067263,234.239756 C269.977579,234.396718 269.977579,234.59028 270.067263,234.747242 C270.156947,234.904204 270.322626,235 270.501645,235 L270.501645,235 Z" id="Path" fill="#3F3D56"></path>
                    <path d="M353.021908,36.9786708 L353.021908,36.9786708 C349.443837,37.2669123 346.309572,34.5999797 346.021329,31.0219094 C345.733087,27.4438392 348.400019,24.3095731 351.978089,24.0213295 C355.556159,23.7330858 358.690427,26.4000166 358.978671,29.9780867 C359.26691,33.5561577 356.599978,36.690423 353.021908,36.9786708 L353.021908,36.9786708 Z M352.941618,35.9819532 L352.941618,35.9819532 C355.969217,35.7380556 358.225853,33.0859857 357.981958,30.0583875 C357.738062,27.0307893 355.085994,24.7741512 352.058396,25.0180438 C349.030797,25.2619364 346.774157,27.9140026 347.018047,30.9416012 C347.135161,32.3955126 347.825046,33.7433513 348.935932,34.6886058 C350.046818,35.6338604 351.487708,36.0990998 352.941618,35.9819761 L352.941618,35.9819532 Z" id="Shape" fill="#CCCCCC"></path>
                    <circle id="Oval" fill="#CCCCCC" cx="376" cy="17" r="4"></circle>
                    <circle id="Oval" fill="#CCCCCC" cx="395" cy="4" r="2"></circle>
                    <path d="M322.924988,166.083116 C321.475466,168.276496 318.847205,169.380869 316.265758,168.881267 C313.684312,168.381665 311.658051,166.376477 311.131819,163.800719 C310.605587,161.22496 311.683016,158.585883 313.861702,157.114085 C316.040388,155.642287 318.891277,155.627613 321.085003,157.076906 L321.085003,157.076906 C324.076924,159.058292 324.900055,163.087286 322.924988,166.083116 L322.924988,166.083116 Z M312.9118,159.467874 C311.685281,161.323812 311.6977,163.735722 312.943266,165.578935 C314.188832,167.422148 316.422252,168.333674 318.602085,167.88847 C320.781919,167.443265 322.478884,165.729006 322.901689,163.545048 C323.324494,161.36109 322.389875,159.137528 320.533643,157.911204 L320.533643,157.911204 C317.998293,156.240334 314.588663,156.93671 312.9118,159.467874 L312.9118,159.467874 Z" id="Shape" fill="#CCCCCC"></path>
                    <circle id="Oval" fill="#CCCCCC" cx="330" cy="186" r="4"></circle>
                    <circle id="Oval" fill="#CCCCCC" cx="342" cy="207" r="2"></circle>
                    <path d="M160.680396,56.3937579 C159.0832,53.1790721 160.393941,49.2780259 163.608018,47.6805262 C166.822094,46.0830266 170.722403,47.3940137 172.319601,50.6086983 C173.9168,53.8233829 172.606062,57.7244301 169.391987,59.3219321 L169.391987,59.3219321 C166.177614,60.9151406 162.280422,59.6052008 160.680396,56.3937579 L160.680396,56.3937579 Z M171.42428,51.0536997 C170.434542,49.0616301 168.342492,47.8620305 166.123652,48.0142738 C163.904812,48.1665171 161.996146,49.6406214 161.287664,51.7492125 C160.579181,53.8578036 161.210407,56.1856294 162.887001,57.6472256 C164.563594,59.1088219 166.955378,59.4163514 168.947064,58.4264133 L168.947064,58.4264133 C171.663854,57.0722417 172.772034,53.774066 171.42428,51.0536997 L171.42428,51.0536997 Z" id="Shape" fill="#CCCCCC"></path>
                    <circle id="Oval" fill="#CCCCCC" cx="139" cy="53" r="4"></circle>
                    <circle id="Oval" fill="#CCCCCC" cx="116" cy="52" r="2"></circle>
                    <path d="M85,212.759967 L84.4080055,211.269413 C82.7747978,207.157151 78.8693587,203.996219 74.6898931,203.403704 C70.4336179,202.853578 66.2374718,204.775583 63.9123813,208.340239 C62.9456497,209.997043 62.1823994,211.761844 61.6388028,213.597247 C61.4525139,214.143719 61.2647447,214.539209 60.9040501,214.658795 C60.4979108,214.803168 60.0938301,214.555969 59.4241247,214.145775 C59.1192378,213.959283 58.7327785,213.963405 58.4320391,214.156358 C58.1312997,214.349311 57.970323,214.696421 58.0187934,215.04743 L58.7210658,220 L58.1333851,219.483302 C54.3096932,216.121106 53.5241124,209.794106 56.2863234,205.779991 L50,207.055919 L50.2832266,206.52206 C52.8940193,201.543824 57.3939522,197.789403 62.7990372,196.079765 L56.7776272,194.769773 L57.3862406,194.399218 C62.7785498,191.117626 69.8923019,191.210055 75.5083184,194.629387 C81.2351908,198.253834 84.7761983,204.442426 84.9661666,211.158796 L85,212.759967 Z" id="Path" fill="#2F2E41"></path>
                </g>
            </g>
        </g>
    </g>
</svg>