<?xml version="1.0" encoding="UTF-8"?>
<svg width="457px" height="469px" viewBox="0 0 457 469" version="1.1" xmlns="http://www.w3.org/2000/svg" xmlns:xlink="http://www.w3.org/1999/xlink">
    <title>Group 6</title>
    <g id="1---Landing" stroke="none" stroke-width="1" fill="none" fill-rule="evenodd">
        <g id="Landing-Page-Dark---Desktop" transform="translate(-180, -1841)">
            <g id="Group-6" transform="translate(180, 1841)">
                <path d="M223.369286,0.5 C263.468252,0.5 323.092961,32.3260357 402.264835,95.8647512 C438.417417,118.450939 456.5,147.281831 456.5,182.42108 C456.5,217.675361 438.376625,283.81531 402.15314,380.848365 C319.128547,439.252927 257.307306,468.5 216.673877,468.5 C176.063836,468.5 131.89671,439.233237 84.1275677,380.844347 C56.1266129,366.068667 35.2367751,350.718496 21.3129408,334.657303 C7.44684084,318.662708 0.5,301.968626 0.5,284.565897 C0.5,249.58368 28.416932,186.644196 84.1733555,95.7363692 C136.93148,32.3004441 183.314467,0.5 223.369286,0.5 Z" id="Rectangle" stroke="#979797" fill="#37BB9A"></path>
                <g id="Group-5" transform="translate(102, 0)">
                    <path d="M55.177665,0 L199.888175,-3.55271368e-15 C216.456717,-6.59630556e-15 229.888175,13.4314575 229.888175,30 C229.888175,30.5655376 229.872183,31.1309622 229.840219,31.6955958 L229.37198,39.9668555 L229.37198,39.9668555 L229.37198,97.9416484 L229.37198,367.716973 L230.070914,381.792114 C230.892651,398.340266 218.143872,412.421344 201.595719,413.243081 C201.100139,413.26769 200.604024,413.28 200.107833,413.28 L55.177665,413.28 C38.6091225,413.28 25.177665,399.848542 25.177665,383.28 L25.177665,30 C25.177665,13.4314575 38.6091225,2.02906125e-15 55.177665,0 Z" id="Rectangle" fill="#FFFFFF"></path>
                    <g id="undraw_post_online_re_1b82" fill-rule="nonzero">
                        <path d="M192.933373,413.28 L61.6166903,413.28 C51.9524475,413.28 42.6840153,409.437545 35.8503636,402.597826 C29.016712,395.758108 25.177665,386.481448 25.177665,376.808625 L25.177665,36.4713691 C25.2004396,16.3382354 41.5014143,0.0227916899 61.6166903,0 L192.932819,0 C213.048143,0.0227292629 229.349193,16.3381876 229.37198,36.4713691 L229.37198,97.9416484 L231.634518,97.9416484 L231.634518,143.232849 L229.37198,143.232849 L229.37198,376.808625 C229.371936,396.951028 213.05791,413.28 192.933373,413.28 Z M61.6166903,1.13261868 C42.1260708,1.15464588 26.3312898,16.9634465 26.309279,36.4713691 L26.309279,376.808625 C26.309279,386.181054 30.0289839,395.169647 36.6503984,401.796969 C43.2718129,408.424292 52.2524167,412.147381 61.6165318,412.147381 L192.932819,412.147381 C212.432505,412.147381 228.2402,396.325889 228.240366,376.808891 L228.240366,142.100231 L230.502904,142.100231 L230.502904,99.074267 L228.240366,99.074267 L228.240366,36.4713691 C228.218355,16.9634487 212.423577,1.154649 192.93296,1.13261868 L61.6166903,1.13261868 Z" id="Shape" fill="#3F3D56"></path>
                        <path d="M194.257302,404.46 L62.5550054,404.46 C47.4814573,404.442591 35.2662061,392.161663 35.248731,377.00691 L35.248731,36.2733626 C35.2661841,21.1185567 47.4814044,8.83753776 62.5550054,8.82 L79.3716866,8.82 L79.0552453,9.60183738 C77.5318652,13.3655218 77.9703096,17.6444895 80.2248879,21.0168833 C82.4794662,24.3892772 86.2548142,26.4132922 90.2964227,26.4163689 L165.386667,26.4163689 C169.428209,26.4131548 173.20344,24.3890922 175.457943,21.016728 C177.712446,17.6443637 178.150881,13.3654769 176.627567,9.60183738 L176.311126,8.82 L194.257324,8.82 C209.330872,8.83760973 221.546008,21.1186103 221.563452,36.2733626 L221.563452,377.00691 C221.546085,392.161659 209.330846,404.442631 194.257302,404.46 L194.257302,404.46 Z M62.5550054,9.95560751 C48.1049064,9.97237876 36.3949442,21.7454176 36.3782535,36.2733626 L36.3782535,377.00691 C36.3950625,391.534755 48.1049889,403.307643 62.5549884,403.324392 L194.257313,403.324392 C208.707306,403.307678 220.417215,391.534748 220.433918,377.00691 L220.433918,36.2733626 L220.433918,36.2733626 C220.417237,21.7454669 208.707352,9.97244447 194.257302,9.95560751 L177.962646,9.95560751 C179.322077,14.0261788 178.650717,18.5057152 176.158598,21.9928078 C173.666479,25.4799004 169.657946,27.5486953 165.387056,27.5519764 L90.2960104,27.5519764 C86.0250623,27.5487701 82.0164368,25.4800248 79.5242113,21.9929367 C77.0319858,18.5058486 76.3605158,14.0262677 77.7198673,9.95560751 L62.5550054,9.95560751 Z" id="Shape" fill="#CCCCCC"></path>
                        <path d="M236.022721,221.76 L11.9772786,221.76 C5.36549458,221.752564 0.0074402782,216.397763 0,209.789994 L0,137.970006 C0.0074402782,131.362237 5.36549458,126.007436 11.9772786,126 L236.022721,126 C242.634507,126.007433 247.992563,131.362236 248,137.970006 L248,209.789999 C247.99256,216.397768 242.634505,221.752567 236.022721,221.76 L236.022721,221.76 Z" id="Path" fill="#FFFFFF"></path>
                        <path d="M236.022721,221.76 L11.9772786,221.76 C5.36549458,221.752564 0.0074402782,216.397763 0,209.789994 L0,137.970006 C0.0074402782,131.362237 5.36549458,126.007436 11.9772786,126 L236.022721,126 C242.634507,126.007433 247.992563,131.362236 248,137.970006 L248,209.789999 C247.99256,216.397768 242.634505,221.752567 236.022721,221.76 L236.022721,221.76 Z M11.9772786,127.408242 C6.14337458,127.41485 1.41571002,132.139645 1.40909793,137.970006 L1.40909793,209.789999 C1.41571002,215.620361 6.14337458,220.345155 11.9772786,220.351763 L236.022721,220.351763 C241.856623,220.345152 246.584284,215.620359 246.590896,209.789999 L246.590896,137.970006 C246.584284,132.139647 241.856623,127.414854 236.022721,127.408242 L11.9772786,127.408242 Z" id="Shape" fill="#3F3D56"></path>
                        <path d="M152.989008,168.84 L74.8688604,168.84 C71.7593417,168.84 69.2385787,166.301455 69.2385787,163.17 C69.2385787,160.038545 71.7593417,157.5 74.8688604,157.5 L152.989008,157.5 C156.098526,157.5 158.619289,160.038545 158.619289,163.17 C158.619289,166.301455 156.098526,168.84 152.989008,168.84 L152.989008,168.84 Z" id="Path" fill="#00BFA6"></path>
                        <path d="M225.985963,189 L74.8871337,189 C71.7675229,189 69.2385787,186.461455 69.2385787,183.33 C69.2385787,180.198545 71.7675229,177.66 74.8871337,177.66 L225.985963,177.66 C229.105574,177.66 231.634518,180.198545 231.634518,183.33 C231.634518,186.461455 229.105574,189 225.985963,189 L225.985963,189 Z" id="Path" fill="#00BFA6"></path>
                        <ellipse id="Oval" fill="#00BFA6" cx="37.7664975" cy="173.88" rx="21.4010152" ry="21.42"></ellipse>
                        <path d="M225.912321,211.68 L205.884634,211.68 C202.724351,211.68 200.162437,209.141455 200.162437,206.01 C200.162437,202.878545 202.724351,200.34 205.884634,200.34 L225.912321,200.34 C229.072603,200.34 231.634518,202.878545 231.634518,206.01 C231.634518,209.141455 229.072603,211.68 225.912321,211.68 L225.912321,211.68 Z" id="Path" fill="#FFFFFF"></path>
                        <path d="M225.912321,211.68 L205.884634,211.68 C202.724351,211.68 200.162437,209.141455 200.162437,206.01 C200.162437,202.878545 202.724351,200.34 205.884634,200.34 L225.912321,200.34 C229.072603,200.34 231.634518,202.878545 231.634518,206.01 C231.634518,209.141455 229.072603,211.68 225.912321,211.68 L225.912321,211.68 Z" id="Path" fill="#CCCCCC"></path>
                        <path d="M192.215736,107.1 L67.1142356,107.1 C63.422372,107.095903 60.4305539,104.136671 60.4263959,100.485003 L60.4263959,60.7949972 C60.4305539,57.1433378 63.4223581,54.1841096 67.1142129,54.18 L192.215736,54.18 C195.907591,54.1841096 198.899395,57.1433378 198.903553,60.7949972 L198.903553,100.485003 C198.899395,104.136662 195.907591,107.09589 192.215736,107.1 L192.215736,107.1 Z M67.1142356,54.9582217 C63.8567267,54.9618722 61.2169144,57.5729434 61.2132237,60.7949859 L61.2132237,100.484992 C61.2169144,103.707034 63.8567267,106.318105 67.1142356,106.321756 L192.215736,106.321756 C195.473246,106.318105 198.11306,103.707035 198.116754,100.484992 L198.116754,60.7949859 C198.11306,57.5729425 195.473246,54.9618722 192.215736,54.9582217 L67.1142356,54.9582217 Z" id="Shape" fill="#CCCCCC"></path>
                        <path d="M146.638845,78.12 L102.620038,78.12 C100.869567,78.117663 99.4517766,76.7080447 99.4517766,74.97 C99.4517766,73.2319553 100.869567,71.822337 102.620038,71.82 L146.638845,71.82 C148.389316,71.822337 149.807107,73.2319553 149.807107,74.97 C149.807107,76.7080447 148.389316,78.117663 146.638845,78.12 Z" id="Path" fill="#E6E6E6"></path>
                        <path d="M186.93445,88.2 L102.600219,88.2 C100.860698,88.1976602 99.4517766,86.7880431 99.4517766,85.05 C99.4517766,83.3119569 100.860698,81.9023398 102.600219,81.9 L186.93445,81.9 C188.061803,81.8984883 189.10417,82.4985429 189.668285,83.4737775 C190.232399,84.449012 190.232399,85.650988 189.668285,86.6262225 C189.10417,87.6014571 188.061803,88.2015117 186.93445,88.2 L186.93445,88.2 Z" id="Path" fill="#E6E6E6"></path>
                        <ellipse id="Oval" fill="#E6E6E6" cx="81.1979695" cy="80.01" rx="11.9593909" ry="11.97"></ellipse>
                        <path d="M186.89125,102.06 L175.675743,102.06 C174.529885,102.061512 173.47041,101.461457 172.897036,100.486223 C172.323662,99.510988 172.323662,98.309012 172.897036,97.3337775 C173.47041,96.3585429 174.529885,95.7584883 175.675743,95.76 L186.89125,95.76 C188.659323,95.7623398 190.091371,97.1719569 190.091371,98.91 C190.091371,100.648043 188.659323,102.05766 186.89125,102.06 L186.89125,102.06 Z" id="Path" fill="#FFFFFF"></path>
                        <path d="M186.89125,102.06 L175.675743,102.06 C174.529885,102.061512 173.47041,101.461457 172.897036,100.486223 C172.323662,99.510988 172.323662,98.309012 172.897036,97.3337775 C173.47041,96.3585429 174.529885,95.7584883 175.675743,95.76 L186.89125,95.76 C188.659323,95.7623398 190.091371,97.1719569 190.091371,98.91 C190.091371,100.648043 188.659323,102.05766 186.89125,102.06 L186.89125,102.06 Z" id="Path" fill="#CCCCCC"></path>
                        <path d="M192.215736,291.06 L67.1142356,291.06 C63.422372,291.055903 60.4305539,288.096671 60.4263959,284.445003 L60.4263959,244.754997 C60.4305539,241.103338 63.4223581,238.14411 67.1142129,238.14 L192.215736,238.14 C195.907591,238.14411 198.899395,241.103338 198.903553,244.754997 L198.903553,284.445003 C198.899395,288.096662 195.907591,291.05589 192.215736,291.06 Z M67.1142356,238.918222 C63.8567267,238.921872 61.2169144,241.532943 61.2132237,244.754986 L61.2132237,284.444992 C61.2169144,287.667034 63.8567267,290.278105 67.1142356,290.281756 L192.215736,290.281756 C195.473246,290.278105 198.11306,287.667035 198.116754,284.444992 L198.116754,244.754986 C198.11306,241.532942 195.473246,238.921872 192.215736,238.918222 L67.1142356,238.918222 Z" id="Shape" fill="#CCCCCC"></path>
                        <path d="M146.639113,263.34 L102.624033,263.34 C100.872044,263.34 99.4517766,261.929697 99.4517766,260.19 C99.4517766,258.450303 100.872044,257.04 102.624033,257.04 L146.639113,257.04 C148.389436,257.042337 149.807107,258.451955 149.807107,260.19 C149.807107,261.928045 148.389436,263.337663 146.639113,263.34 Z" id="Path" fill="#E6E6E6"></path>
                        <path d="M186.938544,273.42 L102.600366,273.42 C100.860764,273.417663 99.4517766,272.008045 99.4517766,270.27 C99.4517766,268.531955 100.860764,267.122337 102.600366,267.12 L186.938544,267.12 C188.679802,267.12 190.091371,268.530303 190.091371,270.27 C190.091371,272.009697 188.679802,273.42 186.938544,273.42 L186.938544,273.42 Z" id="Path" fill="#E6E6E6"></path>
                        <ellipse id="Oval" fill="#E6E6E6" cx="81.1979695" cy="265.23" rx="11.9593909" ry="11.97"></ellipse>
                        <path d="M186.890467,286.02 L175.672215,286.02 C173.902027,286.02 172.467005,284.609697 172.467005,282.87 C172.467005,281.130303 173.902027,279.72 175.672215,279.72 L186.890467,279.72 C188.658973,279.722337 190.091371,281.131955 190.091371,282.87 C190.091371,284.608045 188.658973,286.017663 186.890467,286.02 L186.890467,286.02 Z" id="Path" fill="#FFFFFF"></path>
                        <path d="M186.890467,286.02 L175.672215,286.02 C173.902027,286.02 172.467005,284.609697 172.467005,282.87 C172.467005,281.130303 173.902027,279.72 175.672215,279.72 L186.890467,279.72 C188.658973,279.722337 190.091371,281.131955 190.091371,282.87 C190.091371,284.608045 188.658973,286.017663 186.890467,286.02 L186.890467,286.02 Z" id="Path" fill="#CCCCCC"></path>
                        <path d="M192.215736,365.4 L67.1142356,365.4 C63.422372,365.395903 60.4305539,362.436671 60.4263959,358.785003 L60.4263959,319.094997 C60.4305539,315.443338 63.4223581,312.48411 67.1142129,312.48 L192.215736,312.48 C195.907591,312.48411 198.899395,315.443338 198.903553,319.094997 L198.903553,358.785003 C198.899395,362.436662 195.907591,365.39589 192.215736,365.4 L192.215736,365.4 Z M67.1142356,313.258222 C63.8567267,313.261872 61.2169144,315.872943 61.2132237,319.094986 L61.2132237,358.784992 C61.2169144,362.007034 63.8567267,364.618105 67.1142356,364.621756 L192.215736,364.621756 C195.473246,364.618105 198.11306,362.007035 198.116754,358.784992 L198.116754,319.094986 C198.11306,315.872942 195.473246,313.261872 192.215736,313.258222 L67.1142356,313.258222 Z" id="Shape" fill="#CCCCCC"></path>
                        <path d="M146.639113,337.68 L102.624033,337.68 C100.872044,337.68 99.4517766,336.269697 99.4517766,334.53 C99.4517766,332.790303 100.872044,331.38 102.624033,331.38 L146.639113,331.38 C148.389436,331.382337 149.807107,332.791955 149.807107,334.53 C149.807107,336.268045 148.389436,337.677663 146.639113,337.68 Z" id="Path" fill="#E6E6E6"></path>
                        <path d="M186.938544,347.76 L102.600366,347.76 C100.860764,347.757663 99.4517766,346.348045 99.4517766,344.61 C99.4517766,342.871955 100.860764,341.462337 102.600366,341.46 L186.938544,341.46 C188.679802,341.46 190.091371,342.870303 190.091371,344.61 C190.091371,346.349697 188.679802,347.76 186.938544,347.76 L186.938544,347.76 Z" id="Path" fill="#E6E6E6"></path>
                        <ellipse id="Oval" fill="#E6E6E6" cx="81.1979695" cy="339.57" rx="11.9593909" ry="11.97"></ellipse>
                        <path d="M186.890467,360.36 L175.672215,360.36 C173.902027,360.36 172.467005,358.949697 172.467005,357.21 C172.467005,355.470303 173.902027,354.06 175.672215,354.06 L186.890467,354.06 C188.658973,354.062337 190.091371,355.471955 190.091371,357.21 C190.091371,358.948045 188.658973,360.357663 186.890467,360.36 L186.890467,360.36 Z" id="Path" fill="#FFFFFF"></path>
                        <path d="M186.890467,360.36 L175.672215,360.36 C173.902027,360.36 172.467005,358.949697 172.467005,357.21 C172.467005,355.470303 173.902027,354.06 175.672215,354.06 L186.890467,354.06 C188.658973,354.062337 190.091371,355.471955 190.091371,357.21 C190.091371,358.948045 188.658973,360.357663 186.890467,360.36 L186.890467,360.36 Z" id="Path" fill="#CCCCCC"></path>
                        <polygon id="Path" fill="#FFB8B8" points="114.559489 433.44 121.383368 433.44 124.629442 406.98 114.558376 406.98056"></polygon>
                        <path d="M112.040609,432.180555 L125.880186,432.18 L125.880759,432.18 C128.219898,432.18 130.463252,433.079831 132.117285,434.681703 C133.771319,436.283576 134.700508,438.456203 134.700508,440.721611 L134.700508,440.999184 L112.041045,441 L112.040609,432.180555 Z" id="Path" fill="#2F2E41"></path>
                        <polygon id="Path" fill="#FFB8B8" points="86.8640574 433.44 93.6879365 433.44 96.9340102 406.98 86.8629442 406.98056"></polygon>
                        <path d="M84.3451777,432.180555 L98.1847547,432.18 L98.1853279,432.18 C100.524466,432.18 102.76782,433.079831 104.421854,434.681703 C106.075887,436.283576 107.005076,438.456203 107.005076,440.721611 L107.005076,440.999184 L84.3456133,441 L84.3451777,432.180555 Z" id="Path" fill="#2F2E41"></path>
                        <ellipse id="Oval" fill="#FFB8B8" cx="115.817259" cy="234.36" rx="13.8477157" ry="13.86"></ellipse>
                        <path d="M125.377593,428.4 L112.392,428.4 C111.705412,428.4 111.047427,428.127013 110.564903,427.642151 C110.082379,427.157289 109.815483,426.500848 109.823784,425.81934 L110.578351,364.609392 C110.584069,364.157952 110.233229,363.780853 109.779438,363.750681 C109.325647,363.720509 108.92728,364.047795 108.872299,364.49596 L101.31481,426.158521 C101.156876,427.437511 100.063223,428.4 98.7651497,428.4 L85.6548185,428.4 C84.9388162,428.4 84.2552907,428.103422 83.7691217,427.581631 C83.2829527,427.059841 83.0382808,426.360276 83.0941256,425.651685 L91.7513707,315.68968 L91.9867305,315.664228 L133.441624,311.22 L127.943298,425.971499 C127.879602,427.331706 126.749318,428.401546 125.377593,428.4 Z" id="Path" fill="#2F2E41"></path>
                        <path d="M92.0253102,322.56 C90.6593234,322.556829 89.5420264,321.453857 89.5001443,320.067209 C89.2768549,313.048518 88.8942179,288.762949 93.3420584,270.933602 C95.8343613,260.933312 104.479134,253.76913 114.625609,253.295286 L114.625609,253.295286 C124.601302,252.74201 133.804667,258.739246 137.466807,268.179412 C144.943047,287.455949 152.006537,311.216491 143.200337,314.943106 C131.658337,319.827035 101.231324,322.004247 92.1808058,322.554973 C92.1287055,322.558324 92.0768736,322.56 92.0253102,322.56 Z" id="Path" fill="#00BFA6"></path>
                        <path d="M145.296211,220.490645 C145.514503,220.715409 145.750143,220.922571 146.000941,221.110204 L144.542705,249.180937 L138.477157,252.29288 L141.96731,262.08 L153.239422,257.616642 C155.109963,256.875973 156.2681,254.98689 156.081981,252.980028 L153.128933,221.138305 C155.107477,219.658998 155.966149,217.107169 155.28552,214.729292 C154.604891,212.351416 152.526988,210.643682 150.066789,210.440256 C147.60659,210.23683 145.277464,211.580161 144.217103,213.814081 C143.156742,216.048001 143.586412,218.706359 145.296234,220.490645 L145.296211,220.490645 Z" id="Path" fill="#FFB8B8"></path>
                        <path d="M144.15602,249.934267 L148.404539,262.1596 C148.649139,262.863468 148.579056,263.640285 148.212553,264.287624 C147.84605,264.934962 147.219429,265.388704 146.495979,265.530611 L133.968395,267.987104 C130.301563,269.270431 126.300658,267.30698 125.02357,263.597416 C123.746482,259.887853 125.674924,255.83141 129.334988,254.528426 L140.583228,248.516381 C141.235017,248.168263 142.004169,248.124664 142.690256,248.396944 C143.376343,248.669225 143.911408,249.230415 144.15602,249.934279 L144.15602,249.934267 Z" id="Path" fill="#00BFA6"></path>
                        <path d="M85.0794027,220.490647 C84.8611191,220.715408 84.6254884,220.92257 84.3747018,221.110206 L85.8329368,249.180938 L91.8984772,252.29288 L88.4083259,262.08 L77.1362116,257.616642 C75.2656712,256.875974 74.107535,254.98689 74.2936533,252.980029 L77.2467059,221.138307 C75.2681613,219.659001 74.4094876,217.107171 75.0901156,214.729294 C75.7707436,212.351417 77.8486471,210.643682 80.3088459,210.440256 C82.7690447,210.23683 85.0981707,211.580162 86.1585307,213.814082 C87.2188907,216.048003 86.7892199,218.706361 85.079397,220.490647 L85.0794027,220.490647 Z" id="Path" fill="#FFB8B8"></path>
                        <path d="M87.685541,248.397153 C88.3715306,248.124573 89.1407712,248.168198 89.79241,248.51664 L101.040647,254.528606 C104.700711,255.831573 106.629152,259.887963 105.352065,263.597478 C104.074977,267.306994 100.074072,269.270419 96.407242,267.987109 L83.8796555,265.530648 C83.1562051,265.388743 82.5295847,264.935007 82.1630817,264.287677 C81.7965788,263.640346 81.7264958,262.86354 81.9710953,262.159681 L86.2196192,249.934507 C86.4639297,249.230401 86.9991723,248.669076 87.685541,248.397153 Z" id="Path" fill="#00BFA6"></path>
                        <path d="M121.029442,236.854393 C120.879628,233.17438 122.895697,229.753074 126.167098,228.135696 C130.409882,225.920291 133.07522,221.194625 131.907289,216.879469 C130.412326,211.356071 122.980259,207.773865 116.958355,209.674193 C115.328606,210.259438 113.756847,210.998331 112.263816,211.881125 L108.329494,214.014291 C106.64883,214.865329 105.02837,215.832927 103.479716,216.910159 C98.7551637,220.431748 96.3007539,226.27579 97.0749393,232.16017 C97.8497275,237.775431 101.48526,242.925126 106.461744,246.450827 C108.364908,247.889527 110.563049,248.87781 112.894094,249.342809 C115.279493,249.740586 117.935006,249.288517 119.679119,247.788036 C122.404781,245.443117 122.123193,241.516305 121.241641,238.236582 C121.125133,237.784243 121.05404,237.321169 121.029442,236.854393 Z" id="Path" fill="#2F2E41"></path>
                    </g>
                </g>
            </g>
        </g>
    </g>
</svg>