<?xml version="1.0" encoding="UTF-8"?>
<svg width="417px" height="475px" viewBox="0 0 417 475" version="1.1" xmlns="http://www.w3.org/2000/svg" xmlns:xlink="http://www.w3.org/1999/xlink">
    <title>Group 4</title>
    <g id="1---Landing" stroke="none" stroke-width="1" fill="none" fill-rule="evenodd">
        <g id="Landing-Page-Dark---Desktop" transform="translate(-905, -2437)">
            <g id="Feature-2" transform="translate(165, 2437.3281)">
                <g id="Group-4" transform="translate(740, 0)">
                    <path d="M167.25,0.5 C204.918569,0.5 245.735531,13.0252253 289.708355,38.0637908 C374.150903,106.378394 416.5,158.72941 416.5,195.171875 C416.5,231.664251 401.519468,293.888951 371.581514,381.843708 C357.272326,412.622836 340.229501,435.715319 320.4393,451.109379 C300.675708,466.482739 278.174196,474.16895 252.935088,474.16895 C227.690298,474.16895 201.651595,459.443082 174.789222,430.082173 C147.824741,400.609658 120.047749,356.398094 91.4498508,297.453622 C60.8828441,288.912765 38.1902976,278.652285 23.0648788,266.389863 C8.03558286,254.205369 0.5,240.046912 0.5,223.8967 C0.5,191.359378 21.0021383,138.047559 61.9455972,63.9620192 C94.5605208,21.6832223 129.6506,0.5 167.25,0.5 Z" id="Rectangle" stroke="#979797" fill="#37BB9A" transform="translate(208.5, 237.3345) scale(-1, -1) translate(-208.5, -237.3345)"></path>
                    <g id="undraw_visionary_technology_re_jfp7" transform="translate(36, 80.6719)" fill-rule="nonzero">
                        <g id="Group" transform="translate(257, 0)">
                            <g transform="translate(65.9869, 288.5694)" id="Path">
                                <polygon fill="#FFB6B6" points="26.2594661 33.3981279 17.6213205 33.3972946 13.5121129 0 26.2612171 0.000877525344"></polygon>
                                <path d="M26.5635249,42.4306216 L0,42.4296114 L0,42.0929292 C0.000382556404,36.3694656 4.62924148,31.7298121 10.3392637,31.729495 L10.3399184,31.729495 L15.1920799,28.0397591 L24.2451301,31.7300776 L26.5639516,31.7301218 L26.5635249,42.4306216 L26.5635249,42.4306216 Z" fill="#2F2E41"></path>
                            </g>
                            <g transform="translate(27.6909, 288.5694)" id="Path">
                                <polygon fill="#FFB6B6" points="26.2594661 33.3981279 17.6213425 33.3972946 13.5121203 0 26.2612465 0.000877525344"></polygon>
                                <path d="M26.5635249,42.4306216 L0,42.4296114 L0,42.0929292 C0.000382556404,36.3694656 4.62924148,31.7298121 10.3392637,31.729495 L10.3399184,31.729495 L15.1920799,28.0397591 L24.2451301,31.7300776 L26.5639516,31.7301218 L26.5635249,42.4306216 L26.5635249,42.4306216 Z" fill="#2F2E41"></path>
                            </g>
                            <path d="M49.8341378,135.584736 L99.6713423,136.63641 C99.6713423,136.63641 108.630909,151.359825 101.790411,172.130363 L102.556671,177.914561 L99.4090631,186.853771 L97.8352481,214.197269 L99.4090631,218.403949 L98.3598654,226.291501 C98.3598654,226.291501 102.556671,278.349291 92.0646423,304.6411 L79.4742034,304.115271 L74.7527805,235.51848 L77.3757932,230.498187 L76.851198,228.394833 L70.5559749,196.844655 L64.2607518,213.145588 L64.2607518,222.202815 L58.4901312,228.920692 C58.4901312,228.920692 60.5885487,290.969359 54.8179208,303.589441 L40.7218282,303.589441 L35.4076415,219.455644 L40.6536669,170.552868 L39.6044692,167.397855 L41.1782842,165.820344 L40.1290864,160.561991 L49.8342187,135.584736 L49.8341304,135.584736 L49.8341378,135.584736 Z" id="Path" fill="#2F2E41"></path>
                            <path d="M71.0805112,39.619612 L86.2939628,35.9387545 L90.4907684,45.929646 C90.4907684,45.929646 112.204309,57.4980479 113.253551,73.2731366 C113.253551,73.2731366 116.196293,85.8932047 113.573258,91.6774093 C110.950223,97.4615992 99.9335995,115.865872 99.9335995,115.865872 C99.9335995,115.865872 109.901026,147.941879 107.278035,149.519397 C104.655044,151.096914 42.2273789,147.941886 42.2273789,144.786873 C42.2273789,141.63186 52.6169782,108.504172 52.6169782,108.504172 L54.8178178,51.7138506 L68.9820717,46.4554902 L71.0804892,39.6196194 L71.0805112,39.6196046 L71.0805112,39.619612 Z" id="Path" fill="#3F3D56"></path>
                            <path d="M111.638715,169.062122 C108.45458,167.453706 107.173818,163.562671 108.778237,160.371015 C108.93975,160.049738 109.129917,159.75334 109.334401,159.471861 L100.868987,101.294976 L112.588941,101.670771 L118.719679,158.355089 C120.941684,160.244187 121.67854,163.471666 120.309414,166.194989 C118.704995,169.386651 114.823026,170.670287 111.638663,169.062122 L111.638707,169.062122 L111.638715,169.062122 Z" id="Path" fill="#FFB6B6"></path>
                            <path d="M0.433408061,141.604516 C-0.848428098,138.269455 0.80935801,134.524177 4.13642163,133.239148 C4.47132769,133.109791 4.81081707,133.018167 5.15093179,132.947271 L37.8537734,84.14117 L46.286295,92.308409 L12.8534475,138.43707 C13.2343118,141.332498 11.6180625,144.219977 8.77908937,145.316345 C5.45200368,146.601374 1.71553849,144.939525 0.433408061,141.604523 L0.433408061,141.604516 Z" id="Path" fill="#FFB6B6"></path>
                            <path d="M90.2825548,86.6211378 C86.9712054,75.2180646 92.4710202,63.5840843 104.319307,63.6400727 C107.7439,63.6565207 110.40447,64.6526005 111.141862,67.4097851 C113.722735,77.0599535 115.130027,91.6269774 115.130027,91.6269774 L118.191626,107.13639 L116.337236,110.356679 L120.203174,120.750348 L118.327905,125.667498 L117.922476,150.777945 L108.479623,150.252115 L98.0754053,131.109372 L94.0969805,128.738188 C94.0969805,128.738188 97.2913559,97.7873528 90.9372706,88.8758175 L90.2825253,86.6211525 L90.2825474,86.6211525 L90.2825548,86.6211378 Z" id="Path" fill="#3F3D56"></path>
                            <path d="M47.9857871,58.5578994 C53.5073782,48.0500348 67.6433449,45.5610116 76.1266289,53.8520849 C78.5786094,56.2485108 79.8019365,58.8176838 78.4213346,61.314354 C73.5892205,70.0526924 62.3885428,79.4612315 62.3885428,79.4612315 L48.5952068,101.68799 L45.0294427,102.712954 L40.6063697,112.880966 L31.1280639,124.051104 L18.5740635,130.687253 L11.229628,123.325545 L12.7891854,113.862341 L31.6891271,88.620347 C31.6891271,88.620347 45.2879037,71.4701465 46.8940447,60.6355549 L47.9857871,58.5578994 L47.9857871,58.5578846 L47.9857871,58.5578994 Z" id="Path" fill="#3F3D56"></path>
                            <path d="M73.9713208,36.5463118 C74.3187776,36.5881675 74.665131,36.6195888 75.0097628,36.6353474 C76.0819065,36.6942817 77.141139,36.6330098 78.1619319,36.4595179 C81.2636772,35.9612236 84.0814994,34.4886771 86.2557955,32.3292125 C88.554496,30.0505963 90.1276415,27.0092705 90.5528897,23.5469315 C91.5491475,15.374302 85.7432508,7.9296056 77.5898041,6.93100388 C69.5533681,5.94094144 62.2275896,11.5750524 61.0582103,19.5600758 C61.0398255,19.6836889 61.0208742,19.8020958 61.0076687,19.9251485 C60.0119774,28.1030062 65.812121,35.5430348 73.9713208,36.5463044 L73.9713208,36.5463191 L73.9713208,36.5463118 Z" id="Path" fill="#FFB6B6"></path>
                            <path d="M57.705486,19.0130162 C59.8175284,20.0599408 63.2685918,16.7685866 64.5903241,18.6622715 C64.8049824,18.253035 65.042138,17.8572563 65.2763728,17.4829733 C65.4884047,17.1480683 65.7916101,16.433158 66.1425467,16.3107248 C65.6984797,17.3845946 65.7964583,18.8389786 66.2572695,20.0850424 C68.3407085,20.8653247 71.0678722,19.1381115 72.9961477,17.0951071 C76.0240007,13.8916824 80.9680567,22.1062193 79.7990379,26.3573945 C81.2867998,24.5363745 84.5152815,25.5634405 85.6092384,27.6456017 C86.7026655,29.7225567 84.8550946,31.386684 84.459958,33.7034025 L87.4425075,33.3237364 C89.3242657,31.4866776 89.1926589,28.3911221 90.742314,26.2619654 C93.3305729,22.6987185 94.3334519,19.0630425 92.3876817,15.385614 C90.6617344,12.1340139 90.5004206,7.92574891 87.3340454,6.05110406 C88.7175386,5.3731088 83.7976204,6.43230401 85.11179,4.22278369 C86.4317494,2.01790171 79.3961251,1.75028598 78.9372045,2.93153833 C76.9267309,0.51975947 74.8989024,-1.07037545 72.4258886,0.862149212 C69.9970159,2.76344429 70.2483775,4.76192346 67.3957795,4.58282717 C66.0572735,4.49969824 66.2042634,7.00127227 65.4085019,8.09191092 C64.6173826,9.17672397 61.5421588,9.87313251 61.3925204,9.75704107 C60.5802502,9.12005353 57.816854,14.5426587 57.816854,14.5426587 C57.816854,14.5426587 55.5761623,17.9521028 57.7055154,19.0130162 L57.7054933,19.0130162 L57.705486,19.0130162 Z" id="Path" fill="#2F2E41"></path>
                        </g>
                        <path d="M127.365731,113 C177.421644,113 218,153.742083 218,204 C218,254.257917 177.421644,295 127.365731,295 C77.3098175,295 8.03435788,245.170989 36.7314766,204 C65.4285952,162.829011 77.3098175,113 127.365731,113 Z" id="Path" fill="#F2F2F2"></path>
                        <path d="M249.5,118 C248.672728,118 248,118.659537 248,119.470588 L248,166.529412 C248,167.340463 248.672728,168 249.5,168 C250.327272,168 251,167.340463 251,166.529412 L251,119.470588 C251,118.659537 250.327272,118 249.5,118 Z" id="Path" fill="#3F3D56"></path>
                        <path d="M1.5,82 C0.6727275,82 0,82.6727278 0,83.5 L0,95.5 C0,96.3272722 0.6727275,97 1.5,97 C2.3272725,97 3,96.3272722 3,95.5 L3,83.5 C3,82.6727203 2.3272725,82 1.5,82 Z" id="Path" fill="#3F3D56"></path>
                        <path d="M1.5,118 C0.6727275,118 0,118.666321 0,119.485714 L0,142.514286 C0,143.333679 0.6727275,144 1.5,144 C2.3272725,144 3,143.333679 3,142.514286 L3,119.485714 C3,118.666321 2.3272725,118 1.5,118 Z" id="Path" fill="#3F3D56"></path>
                        <path d="M1.5,150 C0.6727275,150 0,150.666321 0,151.485714 L0,174.514286 C0,175.333679 0.6727275,176 1.5,176 C2.3272725,176 3,175.333679 3,174.514286 L3,151.485714 C3,150.666321 2.3272725,150 1.5,150 Z" id="Path" fill="#3F3D56"></path>
                        <path d="M133.5,36 C132.672728,36 132,36.6663206 132,37.4857143 L132,60.5142857 C132,61.3336794 132.672728,62 133.5,62 C134.327272,62 135,61.3336794 135,60.5142857 L135,37.4857143 C135,36.6663206 134.327272,36 133.5,36 Z" id="Path" fill="#3F3D56"></path>
                        <path d="M88.4144785,198 L37,198 L37,196.526185 L88.4144637,196.526185 C92.8808216,196.526185 96.5144772,192.920806 96.5144772,188.489287 L96.5144772,154 L98,154 L98,188.489287 C98,193.733276 93.7001097,198 88.4144637,198 L88.4144785,198 Z" id="Path" fill="#00BFA6"></path>
                        <rect id="Rectangle" fill="#00BFA6" x="69" y="273" width="116" height="1"></rect>
                        <g id="Group" transform="translate(191, 115)">
                            <path d="M67.9432336,73 L6.05676639,73 C2.71700724,73 0,70.2920815 0,66.9634943 L0,6.03650568 C0,2.70791848 2.71700724,0 6.05676639,0 L67.9432336,0 C71.2829928,0 74,2.70791848 74,6.03650568 L74,66.9634943 C74,70.2920815 71.2829928,73 67.9432336,73 Z" id="Path" fill="#E6E6E6"></path>
                            <path d="M17.5819598,1.798531 C8.8683492,1.798531 1.80458224,8.83867603 1.80458224,17.5231384 L1.80458224,65.6707988 C1.80458224,68.7252561 4.28903263,71.201381 7.35372708,71.201381 L45.1956491,71.201381 C60.1071351,71.201381 72.1952927,59.1536599 72.1952927,44.2920476 L72.1952927,7.32911319 C72.1952927,4.2746559 69.7108423,1.798531 66.6461478,1.798531 L17.5819598,1.798531 L17.5819598,1.798531 L17.5819598,1.798531 Z" id="Path" fill="#FFFFFF"></path>
                            <g transform="translate(5.6296, 17.2091)" fill="#E6E6E6" id="Path">
                                <path d="M47.9453026,2.29512464 L14.6656749,2.29512464 C14.0307579,2.29512464 13.5141505,1.7802234 13.5141505,1.14744497 C13.5141505,0.514666537 14.03078,0 14.6656749,0 L47.9453026,0 C48.5802196,0 49.0965988,0.514651867 49.0965988,1.14744497 C49.0965988,1.78023806 48.5802196,2.29512464 47.9453026,2.29512464 Z"></path>
                                <path d="M47.9453026,26.7665767 L14.6656749,26.7665767 C14.0307579,26.7665767 13.5141505,26.2516754 13.5141505,25.618897 C13.5141505,24.9861186 14.03078,24.471452 14.6656749,24.471452 L47.9453026,24.471452 C48.5802196,24.471452 49.0965988,24.9861039 49.0965988,25.618897 C49.0965988,26.2516901 48.5802196,26.7665767 47.9453026,26.7665767 Z"></path>
                                <path d="M61.4594752,14.5388676 L1.15152435,14.5388676 C0.516607367,14.5388676 0,14.0239663 0,13.3911879 C0,12.7584095 0.516629445,12.2437429 1.15152435,12.2437429 L61.4594752,12.2437429 C62.0943922,12.2437429 62.6107714,12.7583948 62.6107714,13.3911879 C62.6107714,14.023981 62.0943922,14.5388676 61.4594752,14.5388676 L61.4594752,14.5388676 Z"></path>
                            </g>
                            <path d="M67.7048923,53.9257986 L45.9184299,53.9257986 C45.2835129,53.9257986 44.7669055,53.4108973 44.7669055,52.7781189 C44.7669055,52.1453405 45.283535,51.630674 45.9184299,51.630674 L67.7048923,51.630674 C68.3398093,51.630674 68.8561885,52.1453258 68.8561885,52.7781189 C68.8561885,53.410912 68.3398093,53.9257986 67.7048923,53.9257986 Z" id="Path" fill="#E6E6E6"></path>
                        </g>
                        <g id="Group" transform="translate(75, 252)">
                            <path d="M54.1709344,58 L4.82904341,58 C2.16626249,58 0,55.8485026 0,53.2038709 L0,4.79612908 C0,2.15149743 2.16626249,0 4.82904341,0 L54.1709566,0 C56.8337375,0 59,2.15149743 59,4.79612908 L59,53.2038709 C59,55.8485026 56.8337375,58 54.1709566,58 L54.1709418,58 L54.1709344,58 Z" id="Path" fill="#E6E6E6"></path>
                            <path d="M14.0180484,1.42896195 C7.07072137,1.42896195 1.43879064,7.0224986 1.43879064,13.9224879 L1.43879064,52.1768052 C1.43879064,54.6036458 3.41962535,56.5709793 5.86311322,56.5709793 L36.0343708,56.5709793 C47.9232658,56.5709793 57.5611207,46.9988153 57.5611207,35.1909685 L57.5611207,5.82315809 C57.5611207,3.39631749 55.5802934,1.42896195 53.1367907,1.42896195 L14.018041,1.42896195 L14.0180558,1.42896195 L14.0180484,1.42896195 Z" id="Path" fill="#FFFFFF"></path>
                            <g transform="translate(4.4885, 13.673)" fill="#E6E6E6" id="Path">
                                <path d="M38.2266585,1.82351922 L11.6929154,1.82351922 C11.1867021,1.82351922 10.7747989,1.41442346 10.7747989,0.911660535 C10.7747989,0.408897606 11.1866947,0 11.6929154,0 L38.2266585,0 C38.7328717,0 39.1445828,0.408897606 39.1445828,0.911660535 C39.1445828,1.41442346 38.7328717,1.82351922 38.2266585,1.82351922 Z"></path>
                                <path d="M38.2266585,21.2666165 L11.6929154,21.2666165 C11.1867021,21.2666165 10.7747989,20.8575208 10.7747989,20.3547578 C10.7747989,19.8519949 11.1866947,19.4430973 11.6929154,19.4430973 L38.2266585,19.4430973 C38.7328717,19.4430973 39.1445828,19.8519949 39.1445828,20.3547578 C39.1445828,20.8575208 38.7328717,21.2666165 38.2266585,21.2666165 Z"></path>
                                <path d="M49.0014647,11.5514528 L0.918116488,11.5514528 C0.411903254,11.5514528 0,11.142357 0,10.6395941 C0,10.1368312 0.411895865,9.72793354 0.918116488,9.72793354 L49.0014647,9.72793354 C49.5076779,9.72793354 49.9193891,10.1368312 49.9193891,10.6395941 C49.9193891,11.142357 49.5076779,11.5514528 49.0014647,11.5514528 Z"></path>
                            </g>
                            <path d="M53.9809031,42.8451389 L36.6106274,42.8451389 C36.1044142,42.8451389 35.6925109,42.4360432 35.6925109,41.9332802 C35.6925109,41.4305173 36.1044068,41.0216197 36.6106274,41.0216197 L53.9809031,41.0216197 C54.4871163,41.0216197 54.8988275,41.4305173 54.8988275,41.9332802 C54.8988275,42.4360432 54.4871163,42.8451389 53.9809031,42.8451389 Z" id="Path" fill="#E6E6E6"></path>
                        </g>
                        <g id="Group" transform="translate(54, 111)">
                            <path d="M40.3986833,43 L3.60132413,43 C1.61551545,43 0,41.4049269 0,39.4442536 L0,3.55574637 C0,1.59507305 1.61551545,0 3.60131667,0 L40.3986833,0 C42.3844846,0 44,1.59507305 44,3.55574637 L44,39.4442536 C44,41.4049269 42.3844846,43 40.3986833,43 L40.3986759,43 L40.3986833,43 Z" id="Path" fill="#E6E6E6"></path>
                            <path d="M10.4541483,1.0593969 C5.2730907,1.0593969 1.07300389,5.20632933 1.07300389,10.3218416 L1.07300389,38.6828077 C1.07300389,40.4820204 2.550235,41.940559 4.37249887,41.940559 L26.8731071,41.940559 C35.7394073,41.940559 42.9269589,34.8439572 42.9269589,26.0898566 L42.9269589,4.31717018 C42.9269589,2.5179575 41.4497277,1.0593969 39.6274564,1.0593969 L10.4541409,1.0593969 L10.4541409,1.0593969 L10.4541483,1.0593969 Z" id="Path" fill="#FFFFFF"></path>
                            <g transform="translate(3.3473, 10.1369)" fill="#E6E6E6" id="Path">
                                <path d="M28.5080336,1.35191831 L8.72014709,1.35191831 C8.34263339,1.35191831 8.03544663,1.04861863 8.03544663,0.675881903 C8.03544663,0.303145177 8.34262593,0 8.72014709,0 L28.5080336,0 C28.8855473,0 29.1925925,0.303145177 29.1925925,0.675881903 C29.1925925,1.04861863 28.8855473,1.35191831 28.5080336,1.35191831 Z"></path>
                                <path d="M28.5080336,15.7666318 L8.72014709,15.7666318 C8.34263339,15.7666318 8.03544663,15.4633322 8.03544663,15.0905954 C8.03544663,14.7178587 8.34262593,14.4147135 8.72014709,14.4147135 L28.5080336,14.4147135 C28.8855473,14.4147135 29.1925925,14.7178587 29.1925925,15.0905954 C29.1925925,15.4633322 28.8855473,15.7666318 28.5080336,15.7666318 Z"></path>
                                <path d="M36.5434802,8.56400574 L0.68470046,8.56400574 C0.307186754,8.56400574 0,8.26070606 0,7.88796934 C0,7.51523261 0.307179303,7.21208743 0.68470046,7.21208743 L36.5434802,7.21208743 C36.920994,7.21208743 37.2280391,7.51523261 37.2280391,7.88796934 C37.2280391,8.26070606 36.920994,8.56400574 36.5434802,8.56400574 Z"></path>
                            </g>
                            <path d="M40.2569639,31.7644924 L27.3028556,31.7644924 C26.9253419,31.7644924 26.6181551,31.4611928 26.6181551,31.088456 C26.6181551,30.7157193 26.9253344,30.4125741 27.3028556,30.4125741 L40.2569639,30.4125741 C40.6344776,30.4125741 40.9415227,30.7157193 40.9415227,31.088456 C40.9415227,31.4611928 40.6344776,31.7644924 40.2569639,31.7644924 Z" id="Path" fill="#E6E6E6"></path>
                        </g>
                        <circle id="Oval" fill="#00BFA6" cx="200.5" cy="191.5" r="7.5"></circle>
                        <circle id="Oval" fill="#00BFA6" cx="96.5" cy="154.5" r="7.5"></circle>
                        <circle id="Oval" fill="#00BFA6" cx="132.5" cy="255.5" r="7.5"></circle>
                        <g id="Group" transform="translate(139, 40)" fill="#F2F2F2">
                            <ellipse id="Oval" cx="9.22366829" cy="9.11688643" rx="9.22366829" ry="8.88311357"></ellipse>
                            <path d="M83.1659867,6.07791943 L33.5185492,6.07791943 C31.8153417,6.07791943 30.4295642,4.71459151 30.4295642,3.03895972 C30.4295642,1.36332792 31.8153417,0 33.5185492,0 L83.1659867,0 C84.8691942,0 86.2549716,1.36332792 86.2549716,3.03895972 C86.2549716,4.71459151 84.8691942,6.07791943 83.1659867,6.07791943 L83.1659867,6.07791943 Z" id="Path"></path>
                            <path d="M121.911015,16.3636264 L33.5185492,16.3636264 C31.8153417,16.3636264 30.4295642,15.0002985 30.4295642,13.3246667 C30.4295642,11.6490349 31.8153417,10.285707 33.5185492,10.285707 L121.911015,10.285707 C123.614223,10.285707 125,11.6490349 125,13.3246667 C125,15.0002985 123.614223,16.3636264 121.911015,16.3636264 Z" id="Path"></path>
                        </g>
                        <g id="Group" transform="translate(9, 84)" fill="#F2F2F2">
                            <ellipse id="Oval" cx="5.97694091" cy="6.077925" rx="5.97694091" ry="5.922075"></ellipse>
                            <path d="M53.8915695,4.05195 L21.7200286,4.05195 C20.6163466,4.05195 19.718366,3.1430625 19.718366,2.025975 C19.718366,0.9088875 20.6163466,0 21.7200286,0 L53.8915695,0 C54.9952516,0 55.8932321,0.9088875 55.8932321,2.025975 C55.8932321,3.1430625 54.9952516,4.05195 53.8915769,4.05195 L53.8915695,4.05195 Z" id="Path"></path>
                            <path d="M78.9983448,10.9091025 L21.7200286,10.9091025 C20.6163466,10.9091025 19.718366,10.000215 19.718366,8.8831275 C19.718366,7.76604 20.6163466,6.8571525 21.7200286,6.8571525 L78.9983448,6.8571525 C80.1020343,6.8571525 81,7.76604 81,8.8831275 C81,10.000215 80.1020195,10.9091025 78.9983448,10.9091025 Z" id="Path"></path>
                        </g>
                        <g id="Group" transform="translate(187, 291)" fill="#F2F2F2">
                            <ellipse id="Oval" cx="5.97693295" cy="6.0779214" rx="5.97693295" ry="5.9220786"></ellipse>
                            <path d="M53.8915572,4.0519426 L21.7200118,4.0519426 C20.6163373,4.0519426 19.7183568,3.14305339 19.7183568,2.0259713 C19.7183568,0.908889204 20.6163373,0 21.7200118,0 L53.8915572,0 C54.9952317,0 55.8932122,0.908889204 55.8932122,2.0259713 C55.8932122,3.14305339 54.9952317,4.0519426 53.8915572,4.0519426 L53.8915572,4.0519426 Z" id="Path"></path>
                            <path d="M78.998345,10.9091005 L21.7200266,10.9091005 C20.6163521,10.9091005 19.7183716,10.0002113 19.7183716,8.88312916 C19.7183716,7.76604706 20.6163521,6.85715786 21.7200266,6.85715786 L78.998345,6.85715786 C80.1020196,6.85715786 81,7.76604706 81,8.88312916 C81,10.0002113 80.1020196,10.9091005 78.998345,10.9091005 L78.998345,10.9091005 Z" id="Path"></path>
                        </g>
                        <rect id="Rectangle" fill="#E6E6E6" x="121" y="115" width="1" height="70"></rect>
                        <circle id="Oval" fill="#E6E6E6" cx="121.5" cy="185.5" r="4.5"></circle>
                        <circle id="Oval" fill="#E6E6E6" cx="188.5" cy="236.5" r="4.5"></circle>
                        <circle id="Oval" fill="#E6E6E6" cx="68.5" cy="175.5" r="4.5"></circle>
                        <polygon id="Rectangle" fill="#E6E6E6" transform="translate(55.1727, 176.6443) rotate(-1.734) translate(-55.1727, -176.6443)" points="43.0612888 175.906055 67.2841507 175.906055 67.2841507 177.382484 43.0612888 177.382484"></polygon>
                        <polygon id="Path" fill="#E6E6E6" points="225 253 188 253 188 236 189.487262 236 189.487262 251.519791 225 251.519791"></polygon>
                        <circle id="Oval" fill="#E6E6E6" cx="67.5" cy="223.5" r="4.5"></circle>
                        <polygon id="Path" fill="#E6E6E6" points="103 241 66 241 66 224 67.4872617 224 67.4872617 239.519791 103 239.519791"></polygon>
                        <rect id="Rectangle" fill="#E6E6E6" x="39" y="207" width="176" height="1"></rect>
                    </g>
                </g>
            </g>
        </g>
    </g>
</svg>