<?xml version="1.0" encoding="UTF-8"?>
<svg width="412px" height="438px" viewBox="0 0 412 438" version="1.1" xmlns="http://www.w3.org/2000/svg" xmlns:xlink="http://www.w3.org/1999/xlink">
    <title>Group 8</title>
    <g id="1---Landing" stroke="none" stroke-width="1" fill="none" fill-rule="evenodd">
        <g id="Landing-Page-Dark---Desktop" transform="translate(-930, -3521)">
            <g id="Feature-4" transform="translate(165, 3521)">
                <g id="Group-8" transform="translate(765.0583, 0)">
                    <path d="M200.866681,16.5 C236.919647,16.5 290.526384,45.1367719 361.708346,102.296824 C394.206002,122.611958 410.461035,148.538512 410.461035,180.140076 C410.461035,211.856477 394.165397,271.357095 361.596788,358.651036 C286.956139,411.18712 231.377656,437.5 194.845778,437.5 C158.337301,437.5 118.634203,411.167419 75.6914892,358.647092 C50.5026016,345.342997 31.7218022,331.535328 19.2039936,317.087505 C6.74383828,302.706225 0.5,287.696313 0.5,272.048632 C0.5,240.576557 25.6048656,183.953507 75.7323971,102.17426 C123.160867,45.1131454 164.856617,16.5 200.866681,16.5 Z" id="Rectangle" stroke="#979797" fill="#37BB9A"></path>
                    <g id="undraw_digital_nomad_re_w8uy" transform="translate(35.9417, 0)" fill-rule="nonzero">
                        <path d="M8.5645764,115.370527 C13.2678569,112.154316 19.3210941,119.242445 16.0282443,123.655485 C12.6996929,128.116384 5.42267744,126.851832 2.91691859,122.296966 C-0.280217996,116.485325 2.90356574,109.57215 8.05604083,106.198285 C13.9090642,102.365694 21.0823738,102.150054 27.8406517,102.509205 C34.6667816,102.871963 41.3280272,103.353555 48.128466,102.375235 C53.8849542,101.532649 59.5096111,99.9555578 64.8648338,97.6825444 C75.8754639,93.0583014 85.5436332,85.7357384 92.9770627,76.3906577 C96.4457598,71.9909111 99.6874416,67.0458727 101.673042,61.7788074 C103.202454,57.7218138 103.927019,52.3863546 101.759912,48.4151901 C100.805372,46.6058935 99.0871869,45.3220357 97.0812232,44.9191917 C95.0752596,44.5163476 92.9944595,45.0372811 91.4151175,46.3377153 C87.803524,49.2958979 86.8281404,54.7888034 89.5895085,58.6164123 C92.5526123,62.7236265 98.1440123,64.1314922 102.958005,63.3836783 C109.64847,62.344369 115.066317,57.6221673 120.188321,53.5566251 L158.121686,23.4474663 C164.376727,18.4825978 170.567793,13.4214976 176.903402,8.55983702 C182.055606,4.60625983 188.342662,0.772801699 195.053035,2.88451574 C197.757988,3.7357573 200.48415,5.75164545 201.160298,8.64788639 C201.675266,11.3506726 200.651306,14.1163669 198.500269,15.8325682 C197.52547,16.6602372 196.247979,17.0409072 194.979012,16.8818415 C193.710044,16.7227758 192.566098,16.0385776 191.825856,14.9959274 C190.411745,13.024078 190.295419,10.2127476 191.109875,7.98466193 C193.286542,2.03006777 201.273688,1.40707835 206.603549,1.89136396 C212.892738,2.52850781 218.967655,4.52751892 224.405907,7.74940529 C235.670024,14.2903152 244.000359,24.9306854 248.886516,36.8923032 C254.3004,50.145849 255.9683,64.811701 255.747282,79.0394813 C255.70219,81.941318 255.501294,85.1511612 253.867512,87.6532453 C252.267419,90.1037338 249.4758,90.8454279 246.971828,89.2066897 C246.156346,88.6729894 245.108065,87.6333081 245.320657,86.5366722 C245.587556,85.1599295 248.332043,85.1493467 249.431452,85.2020072 C252.439935,85.3461264 255.284244,86.862345 257.439216,88.9064766 C262.560645,93.7644687 262.958875,101.197588 262.291108,107.80692 C261.558048,115.062565 259.466273,122.278956 260.296968,129.624094 C261.657888,141.657644 271.534081,148.344341 281.234281,153.87631 C286.202172,156.709471 291.278509,159.41796 295.745773,163.022281 C300.298753,166.709954 304.284582,171.046948 307.575349,175.894084 C314.078065,185.458144 317.911547,196.583143 318.680535,208.122012 C319.067553,213.88733 318.612057,219.678264 317.328408,225.312235 C316.052391,230.822858 314.042181,237.769488 308.74624,240.729558 C306.161282,242.207646 302.928677,241.917585 300.648292,240.002933 C298.502531,238.281307 297.453957,235.225292 299.670547,233.074267 C301.507164,231.291973 304.446313,231.667613 306.662322,232.392137 C309.330423,233.264459 311.406648,234.892457 313.395332,236.815517 C317.186194,240.481296 321.624046,244.981618 327.391395,243.810846 C328.457041,243.594518 328.006009,241.964661 326.941873,242.180685 C319.979459,243.594062 315.781828,235.504052 310.647339,232.389364 C306.930072,230.134393 300.580835,228.457809 297.675917,232.855454 C294.541018,237.601261 299.581445,242.721739 304.2655,243.332906 C310.355594,244.127542 314.577563,238.174216 316.622347,233.260284 C321.364694,221.863692 321.511936,208.500435 318.611206,196.633494 C315.711416,184.581889 309.441963,173.603794 300.534976,164.981203 C296.039243,160.697146 290.885342,157.413037 285.508472,154.35602 C280.080778,151.270105 274.424136,148.309708 269.780174,144.074299 C264.573714,139.483598 261.65485,132.832682 261.801381,125.893843 C261.85118,117.99792 264.390222,110.335686 264.231966,102.424531 C264.100749,95.8652618 261.871195,89.4602831 256.163723,85.7674673 C253.811903,84.1722373 251.003363,83.3884546 248.165152,83.5352961 C247.010573,83.6301415 245.388864,83.8245601 244.437807,84.5471848 C243.671932,85.1291108 243.526883,86.4913599 243.681328,87.3720226 C244.048168,89.46376 246.026982,90.9164816 247.949122,91.4986499 C250.3401,92.2670578 252.957871,91.4947383 254.548496,89.5516403 C256.396904,87.4176054 257.03863,84.5715287 257.300231,81.8311337 C257.654643,78.1183638 257.458679,74.3045442 257.294984,70.5856545 C256.629731,55.4721567 253.642537,39.9969662 245.786327,26.8710004 C239.108301,15.7135142 228.722411,6.35817457 216.269338,2.21925135 C210.401141,0.268922642 203.440084,-0.899910872 197.385083,0.873879555 C192.175499,2.40001036 188.183549,6.6865973 189.04374,12.3639022 C189.771896,17.1697691 194.752729,20.4938369 199.141955,17.4605095 C201.237441,16.0120812 202.597437,13.7225022 202.866704,11.1898234 C203.135971,8.65714458 202.287765,6.13290729 200.543643,4.27645649 C196.300492,-0.166004604 189.381636,-0.134030709 184.087094,2.1236565 C180.898705,3.4832458 178.075876,5.52029397 175.353299,7.63647669 C171.882832,10.3339656 168.461199,13.0960784 165.018407,15.8287532 L123.544598,48.7481041 C120.271177,51.3463409 117.050446,54.0394737 113.667773,56.4954509 C110.51122,58.7872703 107.028736,60.9100744 103.142938,61.6459078 C97.6710317,62.6820953 89.0090344,59.964658 89.6726468,53.0259621 C89.9303528,50.3313754 91.7156102,47.355025 94.4444163,46.5823432 C97.119315,45.824927 99.6446832,47.5452511 100.639079,49.9806656 C102.831285,55.3496934 100.256851,61.4912903 97.6962663,66.204611 C91.3561711,77.8748967 81.3552646,87.3790215 69.637291,93.5632709 C63.7719288,96.6659024 57.4851702,98.8963939 50.975644,100.184273 C43.6636091,101.62054 36.4887325,101.339481 29.095797,100.891165 C21.92933,100.456576 14.40392,100.501014 8.01644447,104.234674 C2.77886399,107.2962 -0.715112803,112.848179 0.124453941,119.034958 C0.853522898,124.407457 5.16337626,128.513804 10.7219324,128.060089 C15.3875386,127.679265 20.0750369,123.695973 18.4196894,118.636682 C17.0489453,114.44724 11.7579196,111.143458 7.7110537,113.910789 C6.81823338,114.521303 7.66314352,115.986912 8.56450876,115.370527 L8.5645764,115.370527 Z" id="Path" fill="#3F3D56"></path>
                        <path d="M366.575076,238 L325.424924,238 C324.086299,238.001487 323.001507,239.069558 323,240.387546 L323,265.612454 C323.001519,266.930437 324.086305,267.998501 325.424924,268 L366.575042,268 C367.913677,267.998526 368.998487,266.930452 369,265.612454 L369,240.387546 C368.998506,239.069553 367.913706,238.001475 366.575076,238 L366.575076,238 Z" id="Path" fill="#F2F2F2"></path>
                        <path d="M366.575076,238 L325.424924,238 C324.086299,238.001487 323.001507,239.069558 323,240.387546 L323,265.612454 C323.001519,266.930437 324.086305,267.998501 325.424924,268 L366.575042,268 C367.913677,267.998526 368.998487,266.930452 369,265.612454 L369,240.387546 C368.998506,239.069553 367.913706,238.001475 366.575076,238 L366.575076,238 Z M367.370866,256.119369 C367.350406,261.461165 362.994819,265.805993 357.570112,265.895909 C353.394685,265.949421 359.880337,265.970291 354.844465,265.970291 C343.329073,265.970291 331.321704,265.861946 326.841619,265.791701 C325.615784,265.766803 324.633896,264.783725 324.629139,263.57654 L324.629139,240.389414 C324.629626,239.95666 324.985239,239.605665 325.424766,239.604119 L366.573411,239.604119 C367.012842,239.604622 367.369253,239.954658 367.370866,240.387312 L367.370866,256.119369 Z" id="Shape" fill="#E6E6E6"></path>
                        <path d="M361.759044,223 L330.223123,223 C329.651446,223.000792 329.141745,223.350493 328.949023,223.87415 L324.078516,237.169057 C323.931007,237.571739 323.993711,238.019041 324.246668,238.368579 C324.499625,238.718118 324.911315,238.92634 325.350691,238.926964 L367.645532,239 L367.647417,239 C368.102081,239 368.526318,238.777718 368.776602,238.40841 C369.026886,238.039102 369.069731,237.572159 368.890641,237.165556 L368.816896,237.196273 L368.890641,237.165556 L363.002246,223.797618 C362.789452,223.313472 362.300239,222.9996 361.759044,223 Z" id="Path" fill="#E6E6E6"></path>
                        <path d="M369,238.324434 C369,238.503781 368.962618,238.681243 368.890487,238.846108 L363.002467,249.198454 C362.78821,249.68436 362.299592,249.999304 361.75891,250 L330.223392,250 C329.651523,249.999447 329.141448,249.647858 328.948202,249.121026 L324.078608,238.842513 C323.95806,238.511795 323.976758,238.147737 324.130583,237.83052 C324.284408,237.513304 324.560743,237.268945 324.89873,237.151262 C325.043498,237.100096 325.196237,237.0739 325.350154,237.073839 L330.516642,237.064319 L332.62536,237.06074 L360.373005,237.013099 L362.482919,237.009526 L367.645757,237 L367.646959,237 C368.394183,237.000135 369,237.593033 369,238.324434 L369,238.324434 Z" id="Path" fill="#E6E6E6"></path>
                        <path d="M329.094524,258 C329.699012,258 338,258.463499 338,259.015779 C338,259.568059 329.699012,260 329.094524,260 C328.490035,260 328,259.552288 328,259 C328,258.447727 328.490035,258 329.094524,258 L329.094524,258 Z" id="Path" fill="#E6E6E6"></path>
                        <path d="M359.393337,215 L333.606613,215 C332.167715,215.001724 331.001677,216.200783 331,217.680428 L331,250 L361.297893,250 C361.546678,250.000802 361.790425,249.927921 362,249.790062 L362,217.680451 C361.998332,216.200779 360.832262,215.001699 359.393337,215 L359.393337,215 Z" id="Path" fill="#F2F2F2"></path>
                        <path d="M349.175236,217 L334.470445,217 C333.10708,217.00128 332.001998,218.065346 332,219.378752 L332,249 L360,249 L360,227.428107 C359.993103,221.671575 355.150728,217.006641 349.175236,217 Z" id="Path" fill="#FFFFFF"></path>
                        <path d="M356.388035,247 L337.611965,247 C337.273986,247 337,247.223858 337,247.5 C337,247.776142 337.273986,248 337.611965,248 L356.388035,248 C356.726014,248 357,247.776142 357,247.5 C357,247.223858 356.726014,247 356.388035,247 Z" id="Path" fill="#E4E4E4"></path>
                        <path d="M356.387448,244 L337.612551,244 C337.274249,244 337,244.223858 337,244.5 C337,244.776142 337.274249,245 337.612551,245 L356.387448,245 C356.606292,245 356.808512,244.904701 356.917934,244.75 C357.027355,244.595299 357.027355,244.404701 356.917934,244.25 C356.808512,244.095299 356.606292,244 356.387448,244 L356.387448,244 Z" id="Path" fill="#E4E4E4"></path>
                        <path d="M345.411765,243 L337.588235,243 C337.263362,243 337,243.223858 337,243.5 C337,243.776142 337.263362,244 337.588235,244 L345.411765,244 C345.736638,244 346,243.776142 346,243.5 C346,243.223858 345.736638,243 345.411765,243 Z" id="Path" fill="#E4E4E4"></path>
                        <path d="M356.385556,237 L337.61066,237 C337.273097,237.000854 337,237.224461 337,237.5 C337,237.775539 337.273097,237.999146 337.61066,238 L356.385556,238 C356.60485,238.000551 356.807775,237.905373 356.917618,237.750446 C357.027461,237.595519 357.027461,237.404481 356.917618,237.249554 C356.807775,237.094627 356.60485,236.999449 356.385556,237 L356.385556,237 Z" id="Path" fill="#E4E4E4"></path>
                        <path d="M356.388035,234 L337.611965,234 C337.273986,234 337,234.223858 337,234.5 C337,234.776142 337.273986,235 337.611965,235 L356.388035,235 C356.726014,235 357,234.776142 357,234.5 C357,234.223858 356.726014,234 356.388035,234 L356.388035,234 Z" id="Path" fill="#E4E4E4"></path>
                        <path d="M345.411242,233 L337.588758,233 C337.263596,233 337,233.223858 337,233.5 C337,233.776142 337.263596,234 337.588758,234 L345.411242,234 C345.621585,234 345.81595,233.904701 345.921121,233.75 C346.026293,233.595299 346.026293,233.404701 345.921121,233.25 C345.81595,233.095299 345.621585,233 345.411242,233 L345.411242,233 Z" id="Path" fill="#E4E4E4"></path>
                        <path d="M356.385556,228 L337.61066,228 C337.273097,228.000854 337,228.224461 337,228.5 C337,228.775539 337.273097,228.999146 337.61066,229 L356.385556,229 C356.60485,229.000551 356.807775,228.905373 356.917618,228.750446 C357.027461,228.595519 357.027461,228.404481 356.917618,228.249554 C356.807775,228.094627 356.60485,227.999449 356.385556,228 L356.385556,228 Z" id="Path" fill="#E4E4E4"></path>
                        <path d="M356.385556,226 L337.61066,226 C337.273097,226.000854 337,226.224461 337,226.5 C337,226.775539 337.273097,226.999146 337.61066,227 L356.385556,227 C356.60485,227.000551 356.807775,226.905373 356.917618,226.750446 C357.027461,226.595519 357.027461,226.404481 356.917618,226.249554 C356.807775,226.094627 356.60485,225.999449 356.385556,226 L356.385556,226 Z" id="Path" fill="#E4E4E4"></path>
                        <path d="M345.411242,223 L337.588758,223 C337.263596,223 337,223.223858 337,223.5 C337,223.776142 337.263596,224 337.588758,224 L345.411242,224 C345.621585,224 345.81595,223.904701 345.921121,223.75 C346.026293,223.595299 346.026293,223.404701 345.921121,223.25 C345.81595,223.095299 345.621585,223 345.411242,223 L345.411242,223 Z" id="Path" fill="#E4E4E4"></path>
                        <circle id="Oval" fill="#FFB6B6" cx="150.5" cy="94.5" r="17.5"></circle>
                        <path d="M171.14924,84.6206008 C169.33288,81.7116236 165.924371,79.7728783 162.620065,80.3176686 C161.993157,75.8678345 159.026303,72.1489095 154.923827,70.6705058 C150.821352,69.192102 146.265044,70.1999147 143.104433,73.2848455 C142.067319,72.528933 140.723792,72.38974 139.562542,72.9178959 C138.425263,73.4532118 137.435885,74.2753351 136.685004,75.3089847 C132.821813,80.2962764 131.920661,87.0786468 134.339706,92.9604625 C133.935873,91.4406944 135.40713,90.0109336 136.893672,89.6698998 C138.380086,89.3288602 139.939369,89.6514981 141.446807,89.4294265 C143.37884,89.1448376 145.11559,87.9845684 147.05067,87.7234501 C148.676962,87.5040024 150.312428,87.9356664 151.898333,88.3683338 C153.484243,88.8009608 155.115504,89.242163 156.74409,89.0419704 C158.372799,88.8417778 160.470702,95.2312916 160.442548,99.7316483 C160.437195,100.584504 160.60688,101.679494 161.412001,101.860431 C162.403498,102.083304 162.978036,100.666668 163.921759,100.28066 C164.825777,100.012439 165.772588,100.533651 166.063229,101.459521 C166.304546,102.378343 166.102113,103.361251 165.519769,104.09828 C164.939686,104.818408 164.251054,105.436814 163.480474,105.929608 L163.869145,106.264252 C164.515666,107.148433 165.856727,107.186741 166.788602,106.639708 C167.679664,106.014952 168.4013,105.164341 168.884716,104.168963 C170.608715,101.200513 172.120994,98.0376668 172.729418,94.6317057 C173.337842,91.2257447 172.965477,87.5295779 171.14924,84.6206008 Z" id="Path" fill="#2F2E41"></path>
                        <polygon id="Path" fill="#FFB6B6" points="170.997734 401 161.512547 400.998854 157 364 171 364.000573"></polygon>
                        <path d="M171.999481,411 L142,410.998954 L142,410.648001 C142.000441,404.682286 147.22803,399.846245 153.676659,399.84593 L153.677381,399.84593 L159.157167,396 L169.381241,399.846518 L172,399.846598 L171.999481,411 Z" id="Path" fill="#2F2E41"></path>
                        <polygon id="Path" fill="#FFB6B6" points="188 384.04797 180.707204 390 155 363.786412 165.763996 355"></polygon>
                        <path d="M194,391.437126 L171.61743,410 L171.393658,409.703042 C167.590454,404.655227 168.407323,397.328668 173.218269,393.337975 L173.218823,393.337527 L174.855115,386.692601 L184.935478,383.620427 L186.889322,382 L194,391.437126 Z" id="Path" fill="#2F2E41"></path>
                        <polygon id="Path" fill="#2F2E41" points="122.581032 230.947299 122 241.571703 124.826136 244.957551 124.502077 255.58421 127.244072 262.539718 129.172508 284.668112 156.180843 377 180.518818 369.257938 153.941993 283.188036 185.918097 282.395844 187 233.864034 181.333514 223"></polygon>
                        <polygon id="Path" fill="#2F2E41" points="181.905803 273.623253 185 280.928307 173.035658 383.793563 156.248967 385 149 270"></polygon>
                        <polygon id="Path" fill="#00BFA6" points="166.982098 122.543798 161.546606 115 143.995764 115.705287 143.659007 121.513864 132 231.929994 143.449733 231.672652 157.662903 235 185 225.406516"></polygon>
                        <path d="M135.062849,234 L108,234 L115.060594,184.501471 L117.923403,164.43796 C117.923403,164.43796 115.896921,150.098517 114.915842,142.60664 C114.824394,141.807087 114.963858,140.998193 115.317947,140.274417 C115.638939,139.596349 116.057957,138.9685 116.561726,138.410764 C119.853426,134.640863 127.257125,131.371482 131.899823,129.582388 C134.290899,128.66655 135.95281,128.139375 135.95281,128.139375 L142.25742,122 C151.306974,133.229834 135.062849,234 135.062849,234 Z" id="Path" fill="#3F3D56"></path>
                        <path d="M162.711862,118 L171.251146,122.904164 C171.251146,122.904164 196.540694,127.066969 199,136.585414 L189.69094,164.746394 L189.69094,223.930844 L167.123504,233 C167.123504,233 147.657034,137.383683 162.711862,118 Z" id="Path" fill="#3F3D56"></path>
                        <polyline id="Path" fill="#000000" opacity="0.4" points="154.111173 269 150 317.525109 157 374"></polyline>
                        <path d="M53.4162067,177.213417 C54.7854911,176.098458 56.5203373,175.727938 58.1539277,176.201557 C59.7875181,176.675175 61.1520437,177.944281 61.8803341,179.66738 L82,177.089382 L77.2312903,187.715915 L58.8564041,188.534897 C56.1612248,189.756133 53.0858031,188.500389 51.6978527,185.611945 C50.3099022,182.723502 51.0481496,179.115386 53.4162451,177.213461 L53.4162067,177.213417 Z" id="Path" fill="#FFB6B6"></path>
                        <polygon id="Path" fill="#3F3D56" points="139.098464 136 145 139.557372 111.948362 186.541349 71.6063918 190 70 178.377549 99.7235904 169.379157 114.415581 140.643307"></polygon>
                        <path d="M259.583758,174.213418 C258.214474,173.098459 256.479629,172.727938 254.846039,173.201557 C253.212449,173.675176 251.847924,174.944282 251.119634,176.667381 L231,174.089382 L235.768735,184.71592 L254.143612,185.534903 C256.838789,186.75613 259.914202,185.500383 261.302149,182.611941 C262.690095,179.7235 261.951852,176.115389 259.583763,174.213462 L259.583758,174.213418 Z" id="Path" fill="#FFB6B6"></path>
                        <polygon id="Path" fill="#3F3D56" points="174.901018 132 169 135.557372 202.051886 182.541349 242.394158 186 244 174.377549 214.276749 165.379157 199.584648 136.643307"></polygon>
                        <path d="M93,120.979168 L93,120.363465 L82.7983695,120.363465 L82.7983695,106 L82.1913909,106 L82.1913909,120.363465 L70.4996457,120.363465 L70.4996457,109.271154 C70.2952381,109.43376 70.0934308,109.601106 69.894224,109.773193 L69.894224,120.363443 L62.1720462,120.363443 C62.0862174,120.567098 62.0035247,120.772329 61.9255082,120.979146 L69.8942462,120.979146 L69.8942462,133.048681 L60,133.048681 C60.0093635,133.255498 60.0234088,133.459154 60.0405902,133.664396 L69.8942406,133.664396 L69.8942406,143.293185 L62.5121806,143.293185 C62.6026855,143.5 62.6978611,143.703651 62.7977296,143.905737 L69.894224,143.905737 L69.894224,152 L70.4996457,152 L70.4996457,143.905759 L82.1913909,143.905759 L82.1913909,152 L82.7983695,152 L82.7983695,143.905759 L93,143.905759 L93,143.293207 L82.7983695,143.293207 C82.7978635,140.739338 83.8003398,138.289923 85.5851583,136.484064 C87.3699767,134.678205 89.7908557,133.663909 92.3149716,133.664418 L93,133.664418 L93,133.048704 L82.7983695,133.048704 L82.7983695,120.979168 L93,120.979168 Z M82.1913965,143.293207 L70.4996457,143.293207 L70.4996457,133.664418 L82.1913965,133.664418 L82.1913965,143.293207 Z M82.1913965,133.048704 L70.4996457,133.048704 L70.4996457,132.807159 C70.4998477,129.669971 71.7317674,126.661356 73.9243958,124.443177 C76.1170241,122.224998 79.0907519,120.978956 82.1913965,120.979168 L82.1913965,133.048704 Z" id="Shape" fill="#E6E6E6"></path>
                        <path d="M182.86577,36.972518 C182.75484,37.048738 182.627811,36.9609918 182.581792,36.776358 L182.016576,34.5007511 C181.97067,34.3159299 182.023383,34.1041007 182.134314,34.0276173 C182.245244,33.951134 182.372385,34.0389592 182.418291,34.2237804 L182.983506,36.4993873 C183.029252,36.6842066 182.976586,36.8958455 182.86577,36.972518 Z" id="Path" fill="#3F3D56"></path>
                        <path d="M199.187495,20.5591083 L199.187495,20.5591083 L196.620175,14.3875353 C196.226092,13.4402008 195.469854,12.6874015 194.517826,12.2947449 C193.565798,11.9020884 192.495964,11.9017392 191.543677,12.293774 L191.543677,12.293774 L178.400024,17.7046885 C177.447735,18.0967215 176.690998,18.849026 176.296287,19.7961032 C175.901577,20.7431803 175.901225,21.8074504 176.29531,22.7547856 L176.29531,22.7547856 L190.379816,56.6124599 C190.773897,57.5597954 191.530134,58.312596 192.482163,58.7052537 C193.434191,59.0979113 194.504025,59.0982613 195.456313,58.7062268 L195.456313,58.7062268 L208.599983,53.2953067 C209.552269,52.9032749 210.309004,52.150973 210.703713,51.2038991 C211.098423,50.2568252 211.098775,49.1925587 210.704692,48.2452265 L210.704692,48.2452265 L201.014965,24.9521412 L201.014965,24.9521412 C201.075026,24.9274158 201.122753,24.8799679 201.147648,24.8202355 C201.172542,24.7605031 201.172564,24.6933794 201.147708,24.6336311 L199.507682,20.6911722 C199.482828,20.6314197 199.435131,20.5839367 199.375084,20.5591697 C199.315037,20.5344027 199.247559,20.5343806 199.187495,20.5591083 L199.187495,20.5591083 Z" id="Path" fill="#3F3D56"></path>
                        <path d="M196.179183,14.7821797 L209.785716,48.5751704 C210.374455,50.035972 209.708864,51.7115918 208.293612,52.3315308 C208.285009,52.337061 208.27589,52.3416944 208.266391,52.345362 L195.488655,57.7800234 C194.055402,58.38934 192.412894,57.6894398 191.819585,56.2165713 L178.213052,22.4235806 C177.928505,21.7163472 177.929002,20.9218978 178.214433,20.2150411 C178.499865,19.5081843 179.046845,18.9468364 179.735017,18.6545148 L181.284625,17.9954314 C181.286722,18.4524483 181.510195,18.8783594 181.880583,19.1312524 C182.250971,19.3841454 182.719595,19.4307838 183.130312,19.2556278 L190.415341,16.1571404 C190.574287,16.089384 190.718543,15.9898296 190.839722,15.8642651 C191.091853,15.6092064 191.234782,15.2614544 191.23692,14.8978596 C191.239059,14.5342648 191.100232,14.1847621 190.85112,13.9265889 L192.512752,13.2198591 C193.944972,12.6109029 195.586351,13.3103189 196.179183,14.7821797 Z" id="Path" fill="#00BFA6"></path>
                        <path d="M180.865767,31.972521 C180.754837,32.0487363 180.62781,31.9609877 180.581793,31.7763547 L180.016576,29.5007516 C179.970671,29.3159302 180.023383,29.1041008 180.134313,29.0276173 C180.245243,28.9511339 180.372384,29.0389592 180.418289,29.2237806 L180.983506,31.4993836 C181.029253,31.6842066 180.976586,31.8958509 180.865767,31.972521 L180.865767,31.972521 Z" id="Path" fill="#3F3D56"></path>
                        <path d="M179.8658,28.9725274 C179.754894,29.0487212 179.627894,28.9610053 179.581885,28.776435 L179.016797,26.5016115 C178.986801,26.3819944 178.997484,26.244788 179.044808,26.1418789 C179.092131,26.0389699 179.168871,25.9860656 179.246007,26.0031725 C179.323144,26.0202794 179.388903,26.1047864 179.418418,26.2247361 L179.983509,28.4995534 C180.029246,28.6843108 179.976592,28.8958814 179.8658,28.9725274 Z" id="Path" fill="#3F3D56"></path>
                        <path d="M184.027479,16.8657666 C183.951264,16.7548368 184.039012,16.6278105 184.223645,16.581793 L186.499245,16.0165766 C186.684066,15.9706702 186.895896,16.0233822 186.972382,16.1343121 C187.048867,16.245242 186.961043,16.3723829 186.776222,16.4182894 L184.500616,16.9835058 C184.315793,17.0292527 184.104149,16.9765855 184.027479,16.8657666 Z" id="Path" fill="#FFFFFF"></path>
                        <circle id="Oval" fill="#FFFFFF" cx="187.5" cy="15.5" r="1"></circle>
                        <path d="M259.541446,163 C259.500198,163 259.458949,162.999158 259.417291,162.997505 C258.431275,162.961224 257.524986,162.438232 256.990211,161.596912 C255.016758,158.604124 252.594929,155.942283 249.8122,153.707537 C248.127635,152.341372 246.367269,151.071082 244.665021,149.84244 C240.273358,146.674058 236.13753,143.689955 233.84172,139.566712 C228.836176,130.57571 234.730943,118.052594 243.152164,112.436388 C252.597736,106.137511 265.021885,105.149483 277.040842,105.019998 C278.28994,105.006595 279.539785,105 280.790377,105 L280.790377,105 C302.445984,105.008418 324.056049,107.013332 345.354051,110.990016 C352.436149,112.315771 359.849266,113.939872 365.806418,117.881262 C371.728212,121.799347 375.327584,127.969364 374.976447,133.60062 C374.463759,141.821325 365.875091,147.963919 358.054353,149.569875 C350.599987,151.099334 342.856052,150.065744 334.657755,148.971121 C332.847808,148.729672 330.976496,148.479786 329.125905,148.26268 C309.013897,145.903954 271.232212,153.174156 269.633822,153.484876 L268.048008,153.792908 L261.894954,161.82701 C261.333946,162.569363 260.463403,163.003235 259.541446,163 Z" id="Path" fill="#00BFA6"></path>
                        <path d="M350.123458,124 L263.876542,124 C262.840156,124 262,122.880712 262,121.5 C262,120.119288 262.840156,119 263.876542,119 L350.123458,119 C351.159844,119 352,120.119288 352,121.5 C352,122.880712 351.159844,124 350.123458,124 Z" id="Path" fill="#FFFFFF"></path>
                        <path d="M350.126636,135 L263.875973,135 C262.84056,134.999517 262.001081,133.881957 262,132.502604 C261.998921,131.12325 262.836648,130.00336 263.872058,130 L350.126636,130 C351.161793,130.002399 352,131.120984 352,132.5 C352,133.879016 351.161793,134.997601 350.126636,135 L350.126636,135 Z" id="Path" fill="#FFFFFF"></path>
                        <path d="M274.234976,146 L264.765024,146 C263.789732,145.997601 263,144.879016 263,143.5 C263,142.120984 263.789732,141.002399 264.765024,141 L274.234976,141 C275.210268,141.002399 276,142.120984 276,143.5 C276,144.879016 275.210268,145.997601 274.234976,146 L274.234976,146 Z" id="Path" fill="#FFFFFF"></path>
                        <circle id="Oval" fill="#FFFFFF" cx="261" cy="166" r="9"></circle>
                        <path d="M261,175 C256.029445,175 252,170.970575 252,166.00002 C252,161.029465 256.029405,157 260.999959,157 C265.970514,157 270,161.029384 270,165.999939 C269.994379,170.968182 265.968242,174.994345 261,175 L261,175 Z" id="Path" fill="#3F3D56"></path>
                        <path d="M259.495512,170 C259.477662,170 259.459806,169.999412 259.441956,169.998527 C259.122817,169.982855 258.826335,169.826324 258.630258,169.569985 L257.230941,167.741986 C257.052473,167.508963 256.972438,167.213434 257.008448,166.920437 C257.044458,166.627441 257.193563,166.36099 257.422949,166.179723 L257.473308,166.139907 C257.702658,165.958454 257.993584,165.877077 258.282014,165.913698 C258.570443,165.950319 258.832718,166.101935 259.011076,166.335153 C259.154106,166.52175 259.370101,166.635696 259.602591,166.6472 C259.835081,166.658704 260.06095,166.566622 260.221145,166.39503 L263.062306,163.347183 C263.478747,162.901517 264.1716,162.882387 264.611245,163.304416 L264.657833,163.349541 C264.868819,163.552566 264.991762,163.832461 264.999601,164.127618 C265.00744,164.422775 264.899532,164.709 264.699629,164.923292 L260.290517,169.652259 C260.083808,169.874265 259.796283,170 259.495512,170 Z" id="Path" fill="#FFFFFF"></path>
                        <path d="M91.5970531,49.8272914 L86.0350226,16.2430116 C85.8022111,14.8274145 86.7545776,13.4897362 88.163919,13.2527989 L113.42486,9.03516217 C114.834722,8.80141502 116.166975,9.75764893 116.402953,11.1727095 L121.964978,44.756995 C122.197784,46.1725768 121.245438,47.5102423 119.836116,47.7471963 L94.5751753,51.9648331 C93.1653052,52.1985978 91.8330341,51.2423627 91.5970531,49.8272914 Z" id="Path" fill="#3F3D56"></path>
                        <path d="M92.5504397,39.9638802 L89.0322768,18.4384669 C88.8177347,17.11675 89.6952837,15.8677739 90.9939101,15.6465625 L112.353771,12.0328428 C113.652902,11.8145526 114.880552,12.7073595 115.098036,14.0286068 L119.967742,43.8232319 C120.182219,45.1449756 119.304629,46.3939308 118.005987,46.6151363 L104.773992,48.8537438 C98.9873037,49.8259486 93.5191013,45.8490709 92.5504397,39.9638802 L92.5504397,39.9638802 Z" id="Path" fill="#FFFFFF"></path>
                        <path d="M92.0323916,22.0859811 C91.8171084,20.8389212 92.697578,19.6604803 94.0005278,19.451782 L109.213952,17.0313704 C110.517733,16.8239434 111.75041,17.6670102 111.967212,18.9144128 C112.184014,20.1618154 111.302843,21.3411878 109.999061,21.5486147 L94.7856489,23.9690099 C93.4822263,24.1749805 92.2505254,23.3325862 92.0323916,22.0859811 L92.0323916,22.0859811 Z" id="Path" fill="#00BFA6"></path>
                        <path d="M94.0323908,29.0859708 C93.8171109,27.8389142 94.6975788,26.6604776 96.0005265,26.451777 L111.213952,24.0313703 C112.517734,23.8239438 113.75041,24.6670089 113.967212,25.9144089 C114.184014,27.161809 113.302843,28.3411789 111.999062,28.5486055 L96.7856359,30.9690122 C95.482212,31.1749751 94.2505163,30.332575 94.0323908,29.0859708 Z" id="Path" fill="#00BFA6"></path>
                        <path d="M96.0323913,37.0858866 C95.8171078,35.8387751 96.6975907,34.6602867 98.0005606,34.4515769 L113.214246,32.0310637 C114.057659,31.8968763 114.911826,32.2033912 115.454992,32.8351469 C115.998157,33.4669027 116.147801,34.3279208 115.847553,35.0938639 C115.547305,35.859807 114.842782,36.4143103 113.999369,36.5484976 L98.7856834,38.9690108 C97.4822373,39.1749828 96.2505206,38.3325456 96.0323913,37.0858866 L96.0323913,37.0858866 Z" id="Path" fill="#00BFA6"></path>
                        <path d="M222.966067,387.009432 L223.368508,378.315371 C227.563786,376.160801 232.243052,375.022737 237,375 C230.453044,380.142777 231.271203,390.056285 226.83251,396.972106 C223.99337,401.320755 219.24989,404.192781 213.941739,404.777059 L208.462988,408 C206.941552,399.850803 209.210368,391.470161 214.671698,385.066024 C216.203897,383.305193 217.960787,381.736756 219.900903,380.397729 C221.213083,383.722002 222.966067,387.009432 222.966067,387.009432 Z" id="Path" fill="#F2F2F2"></path>
                        <path d="M59.00205,173.610963 C54.9266473,173.52777 33.0358406,172.88389 29.4460701,173.042232 C29.243006,172.313723 22.4378773,181.250878 22.2723831,181.306272 C22.0485137,181.548459 21.9545507,181.887634 22.020845,182.214241 C22.0871392,182.540848 22.3052883,182.813491 22.6048282,182.944104 C23.0048605,183.193153 58.2957258,182.524105 58.723313,182.611399 C59.1007814,182.605284 59.4413847,182.377884 59.5993639,182.026513 L59.8352487,181.485096 C59.859753,180.558864 60.1556561,175.825107 59.8900232,175.015748 C60.0224497,174.707135 59.9944941,174.350956 59.8156371,174.068002 C59.6367801,173.785048 59.3310196,173.613284 59.00205,173.610963 L59.00205,173.610963 Z" id="Path" fill="#3F3D56"></path>
                        <path d="M60,183 C59.7919635,183.663069 59.5258462,184.496166 58.8831531,184.465572 L22.9792676,185 C22.6339254,184.994846 22.3155468,184.751458 22.1390685,184.357701 C21.9625901,183.963943 21.9535014,183.476688 22.1150833,183.071837 L60,183 Z" id="Path" fill="#000000" opacity="0.17"></path>
                        <path d="M29.9704482,174.50628 C29.5568518,173.822861 19.2842,125.254461 18.4268148,124.848318 L11.4132136,116.65022 L10.7863552,116.199814 C9.91464178,115.742256 7.82361687,116.051633 8.01192728,117.323793 L8.01192728,117.323793 C9.65963601,124.872086 20.2576877,167.862924 20.4899338,174.565407 L21.7656954,183.104068 C21.8117026,183.397895 21.9856473,183.659413 22.2445265,183.823968 C22.5034056,183.988524 22.8230564,184.040759 23.1244539,183.967759 C23.8684549,183.891127 24.5148305,183.444853 24.8245652,182.793957 C24.920171,182.492631 30.4506867,174.681233 29.9704482,174.50628 Z" id="Path" fill="#3F3D56"></path>
                        <path d="M11.2380633,116.636909 L24,182.798711 C23.5732133,183.883929 21.5761551,184.644207 21.1110209,183.22065 C21.1028871,183.21869 8.01868913,117.351035 8.00538384,117.311657 C7.86597904,115.726446 10.4733323,115.676165 11.2380633,116.636909 Z" id="Path" fill="#000000" opacity="0.17"></path>
                        <polygon id="Path" fill="#00BFA6" points="11 118 17.5964124 127.124648 25 162.020523 21.557921 165"></polygon>
                        <path d="M54,178.916096 L55.5741292,179 C55.5987436,178.397002 55.674881,177.799502 55.8011197,177.218657 C56.0379792,175.747113 56.2501659,173.998041 55.2681856,174.004495 C54.6020181,173.920591 54.3750277,175.024249 54.2565979,176.22472 C54.2260457,177.129356 54.1402397,178.02935 54,178.916096 L54,178.916096 Z" id="Path" fill="#2F2E41"></path>
                        <path d="M45,175.942908 L46.3104985,175.980969 L46.944414,176 C46.9322233,175.457627 47.2552764,174.339578 46.4689773,174.063634 C46.3438902,174.021658 46.2089291,174.00059 46.0727801,174.001784 C45.3352438,173.968481 45.1158115,174.406185 45.0487627,174.910497 C45.0060953,175.214987 45.0243814,175.538507 45.0121907,175.790663 C45.0121663,175.842988 45.0061014,175.895317 45,175.942908 Z" id="Path" fill="#2F2E41"></path>
                        <path d="M41,175.938294 L42.3158875,175.981014 L42.943371,176 C42.9311868,175.378197 43.3515398,174.020649 42.0721681,174.001687 C40.8903062,173.949474 41.042608,175.121881 41.0121476,175.786404 C41.0121598,175.838607 41.0060616,175.890814 41,175.938294 Z" id="Path" fill="#2F2E41"></path>
                        <path d="M37,175.942914 L38.309794,175.980971 L38.9433688,176 C38.9311847,175.381573 39.3515372,174.021034 38.0722035,174.002006 C36.8903428,173.94492 37.0426445,175.119931 37.0121841,175.790686 C37.0121598,175.843005 37.0060616,175.895329 37,175.942914 Z" id="Path" fill="#2F2E41"></path>
                        <path d="M34,175.938294 L35.3158861,175.981014 L35.9433688,176 C35.9311847,175.378197 36.3515372,174.02542 35.0722035,174.001687 C33.8903428,173.949474 34.0426445,175.121881 34.0121841,175.786404 C34.0121963,175.838607 34.0060982,175.890843 34,175.938294 Z" id="Path" fill="#2F2E41"></path>
                        <path d="M30,175.942938 L31.310646,175.980979 L31.944633,176 C31.9324409,175.429376 32.2860105,174.235821 31.3472222,174.031348 L31.3411262,174.031348 C31.2540973,174.011255 31.1636489,174.001634 31.0729009,174.002816 C30.9622321,173.995137 30.8506953,174.003193 30.7437154,174.026592 L30.7376194,174.026592 C29.9207516,174.193024 30.0365762,175.191616 30.0121921,175.790771 C30.0122042,175.843069 30.0061021,175.8954 30,175.942938 Z" id="Path" fill="#2F2E41"></path>
                        <path d="M51,174.938298 L52.9502936,175 C52.9502936,174.943044 52.9502936,174.881342 52.9564074,174.810147 C53.0047066,174.44906 53.0128885,174.085416 52.9808625,173.723239 C52.913611,173.324548 52.6935152,173.011291 52.0760241,173.001798 C51.4463054,172.973321 51.1956407,173.286578 51.0978204,173.690015 C51.075092,173.758628 51.0587464,173.828421 51.0489102,173.898853 L51.0489102,173.9036 C51,174.273803 51.0305628,174.672504 51,174.938298 Z" id="Path" fill="#2F2E41"></path>
                        <path d="M47,174.938165 L48.9558132,175 C48.997313,174.591777 49.0095941,174.182082 48.9925997,173.772804 C48.93742,173.354226 48.7228323,173.011752 48.0790694,173.002239 C47.4291385,172.968943 47.1778012,173.311416 47.079704,173.734751 C46.9877256,174.143826 47.0367865,174.633739 47,174.938165 Z" id="Path" fill="#2F2E41"></path>
                        <path d="M44,174.93829 L44.578638,174.957278 L45.9430054,175 C45.9369144,174.772149 45.9917023,174.439867 45.9978237,174.112332 C46.0030043,174.014129 45.9989327,173.915763 45.9856418,173.818024 C45.9369449,173.376564 45.7359139,173.011053 45.072003,173.001559 C44.3959102,172.973078 44.1583641,173.338588 44.0731216,173.784796 C43.987806,174.183521 44.0365456,174.643988 44,174.93829 Z" id="Path" fill="#2F2E41"></path>
                        <path d="M51,177.942915 L52.9407964,178 C52.9347124,177.381575 53.3484245,176.021041 52.0707842,176.002013 C50.7931257,175.940161 51.073008,177.319733 51,177.942915 Z" id="Path" fill="#2F2E41"></path>
                        <path d="M47,177.938295 L48.9407964,178 C48.9347124,177.378206 49.3484245,176.020701 48.0707842,176.001715 C46.7931257,175.944752 47.0730019,177.321252 47,177.938295 Z" id="Path" fill="#2F2E41"></path>
                        <path d="M44,177.942963 L45.940836,178 C45.9347519,177.557962 46.1476963,176.74043 45.8009012,176.303145 C45.6467535,176.105859 45.3662068,175.990794 45.0708061,176.0037 C44.871627,175.987257 44.6713789,176.025955 44.5049824,176.113045 C43.8844016,176.431484 44.0608291,177.439135 44,177.942963 Z" id="Path" fill="#2F2E41"></path>
                        <path d="M41,177.938364 L42.9422798,178 C42.9361912,177.559062 43.1431749,176.748306 42.8083295,176.307368 C42.6542071,176.107507 42.3704939,175.990661 42.0716027,176.003951 C41.8722209,175.986872 41.6715329,176.025521 41.5053581,176.113 C40.8843095,176.440138 41.0608682,177.440535 41,177.938364 Z" id="Path" fill="#2F2E41"></path>
                        <path d="M37,177.942963 L38.940836,178 C38.9347519,177.557964 39.1476963,176.740436 38.8009012,176.303153 C38.6467792,176.105847 38.3662148,175.990775 38.0708061,176.00371 C37.8716291,175.987243 37.6713742,176.025933 37.5049824,176.113031 C36.8844381,176.431491 37.0608656,177.439138 37,177.942963 Z" id="Path" fill="#2F2E41"></path>
                        <path d="M34,177.938364 L35.9422678,178 C35.9361791,177.559068 36.143192,176.748322 35.8083183,176.30739 C35.6552903,176.106632 35.3708257,175.989468 35.071596,176.003953 C34.8722151,175.986869 34.6715263,176.025518 34.5053549,176.113 C33.8843103,176.440129 34.0609044,177.440514 34,177.938364 Z" id="Path" fill="#2F2E41"></path>
                        <path d="M29,177.942963 L30.9432391,178 C30.9371474,177.557936 31.1442638,176.745191 30.8031309,176.303156 C30.6498892,176.10496 30.3682361,175.989585 30.0721319,176.003713 C29.8727077,175.987238 29.6722014,176.025929 29.5056077,176.113033 C28.8842585,176.436223 29.060941,177.43911 29,177.942963 Z" id="Path" fill="#2F2E41"></path>
                    </g>
                </g>
            </g>
        </g>
    </g>
</svg>